<?xml version="1.0" encoding="utf-8"?>
<svg enable-background="new 0 0 424 472" id="Layer_1" version="1.1" viewBox="0 0 424 472" width="100%" x="0px" xml:space="preserve" xmlns="http://www.w3.org/2000/svg" xmlns:xlink="http://www.w3.org/1999/xlink" y="0px">
 <path d=" M1.000000,185.000000   C1.000000,123.333351 1.000000,62.166702 1.000000,1.000041   C142.333267,1.000027 283.666534,1.000027 424.999878,1.000014   C424.999908,158.333221 424.999908,315.666443 424.999939,472.999756   C283.666809,472.999817 142.333633,472.999817 1.000224,472.999908   C1.000000,377.166656 1.000000,281.333344 1.000000,185.000000  M284.000000,138.000000   C284.000000,138.000000 283.965607,137.968353 283.457153,138.094254   C283.299377,138.390121 283.141602,138.685989 283.000000,138.999390   C283.000000,138.999390 282.981476,138.984512 282.471130,139.118622   C282.328827,139.422607 282.186523,139.726593 282.006409,140.005630   C282.006409,140.005630 282.031525,140.043243 281.505127,140.120636   C281.343536,140.417862 281.181915,140.715088 280.998779,141.000000   C280.998779,141.000000 281.015228,141.019409 280.394501,141.140564   C279.570221,142.062805 278.745972,142.985062 277.386230,144.213608   C276.549896,145.109451 275.713531,146.005280 274.268005,147.126755   C272.808838,148.698380 271.349670,150.270004 269.882080,151.866364   C269.882080,151.866364 269.858002,151.876648 269.373993,152.022110   C269.207794,152.303284 269.041565,152.584457 268.965240,152.968628   C268.965240,152.968628 268.861572,152.879379 268.375427,153.025116   C268.203583,153.305435 268.031769,153.585739 267.323273,154.204178   C266.464264,155.135605 265.605255,156.067032 264.225403,157.314453   C264.202393,157.914795 264.179352,158.515152 263.654388,159.550369   C261.146576,162.096390 258.638763,164.642426 255.405563,167.183472   C250.849716,169.348251 246.293884,171.513031 240.899399,173.671906   C238.935272,173.676071 236.971130,173.680237 234.246429,173.382401   C233.917892,173.330200 233.589462,173.233063 233.260788,173.232208   C204.134369,173.157013 175.007935,173.071732 145.881561,173.091949   C144.837982,173.092667 143.795135,174.140076 141.977676,174.642075   C139.113342,175.787170 136.102722,176.664963 133.416336,178.135223   C128.441910,180.857742 122.543434,189.578598 121.950378,196.126282   C121.802902,196.929535 121.655418,197.732803 121.645485,199.187149   C121.473053,199.793427 121.300629,200.399704 120.274132,201.280594   C120.183701,219.401489 120.023895,237.522354 120.021530,255.643265   C120.018936,275.434937 120.162071,295.226624 120.157257,315.877014   C119.282249,319.338989 119.320892,323.483215 117.347977,326.125397   C112.803535,332.211395 107.281555,337.567505 101.483749,343.200958   C101.118622,343.884583 100.753494,344.568237 99.844009,345.639862   C97.964516,347.530548 96.085022,349.421204 93.527382,351.203400   C93.126915,351.876465 92.726440,352.549530 92.266541,353.264435   C92.266541,353.264435 92.226501,353.325104 91.565147,353.267395   C90.965073,354.108185 90.364990,354.948975 89.313171,356.231354   C88.294594,357.291504 87.276016,358.351654 85.554245,359.228058   C84.273186,360.724884 82.992119,362.221741 81.245575,364.141296   C80.235321,365.201965 79.225067,366.262604 77.505287,367.155701   C76.276413,368.721405 75.047539,370.287109 73.361931,372.287292   C72.310303,373.290039 71.258682,374.292786 69.505188,375.164062   C69.142220,375.866394 68.779243,376.568695 67.814240,377.565033   C65.955322,379.501373 64.096405,381.437714 61.554729,383.150635   C61.058567,383.785950 60.562408,384.421265 60.009354,385.001221   C60.009354,385.001221 60.058769,385.059753 59.370869,385.178436   C58.852345,386.395721 58.333817,387.613007 57.960976,388.905731   C57.960976,388.905731 57.808270,388.850739 57.098419,388.978546   C56.609455,390.414368 56.120491,391.850159 55.429863,393.742279   C55.429863,393.742279 55.108562,394.123932 54.677280,394.101898   C54.578182,394.449860 54.479084,394.797821 54.521870,395.787262   C54.519520,397.094604 54.517174,398.401917 54.235432,400.459778   C55.477722,402.960480 56.720009,405.461212 58.001427,407.998413   C58.001427,407.998413 58.038242,408.037231 58.232441,408.668091   C60.467022,410.133942 62.701607,411.599792 65.614891,412.927856   C65.818092,412.818329 66.021301,412.708832 66.928452,412.539856   C67.869728,412.510376 68.811012,412.480896 70.544853,412.760773   C74.363190,413.188446 77.702103,412.512512 79.769829,408.733765   C79.769829,408.733765 79.787125,408.663239 80.491989,408.728912   C83.246620,405.762268 86.001259,402.795654 88.813797,399.816559   C88.813797,399.816559 88.842834,399.764923 89.550316,399.843597   C92.612267,397.121948 95.843857,394.565796 98.697548,391.640991   C103.301430,386.922363 107.656364,381.960876 112.472160,376.928253   C112.472160,376.928253 112.840958,376.784424 113.492950,376.631500   C123.991875,366.050781 134.490799,355.470062 145.667526,344.709961   C148.112183,343.080139 150.556839,341.450287 153.512283,339.847778   C153.644073,339.741089 153.775848,339.634369 153.892441,339.430054   C153.892441,339.430054 153.794540,339.442902 154.181442,340.272705   C155.634750,340.507904 157.087738,340.946106 158.541397,340.948334   C189.315018,340.995483 220.088745,341.002686 250.862350,340.957764   C251.790726,340.956390 252.718155,340.310242 254.232422,339.548492   C254.708572,339.544403 255.184723,339.540314 256.433136,339.863037   C258.932983,338.710144 261.432831,337.557220 264.639801,336.509918   C270.286804,333.467194 275.253967,329.834869 277.148254,322.631592   C277.634369,321.004028 278.120483,319.376434 278.448395,317.151093   C278.404022,316.741943 278.359650,316.332825 278.926941,315.580261   C278.952545,314.053741 278.978149,312.527222 279.714081,310.513214   C279.799652,310.023163 279.959869,309.533142 279.960205,309.043030   C279.985992,272.567902 280.008759,236.092743 279.971954,199.617676   C279.970703,198.393616 279.357910,197.170181 279.039764,195.195053   C280.187195,192.249283 281.334595,189.303528 283.060059,186.045288   C285.256805,182.958817 287.453522,179.872360 289.732391,176.737473   C289.732391,176.737473 289.780914,176.655365 290.443451,176.747192   C290.900391,176.119324 291.357361,175.491470 291.860626,174.856918   C291.860626,174.856918 291.866852,174.810547 292.584106,174.899063   C294.978241,172.211136 297.372406,169.523209 299.820557,166.818375   C299.820557,166.818375 299.841125,166.765656 300.569763,166.888504   C301.653595,165.550369 302.737457,164.212250 304.369415,162.541092   C305.533600,161.292786 306.697815,160.044479 308.578644,158.928864   C309.646851,157.567810 310.715057,156.206757 311.832916,154.832047   C311.832916,154.832047 311.846039,154.782227 312.551514,154.815338   C314.941132,152.148697 317.330750,149.482056 319.785095,146.783920   C319.785095,146.783920 319.817169,146.719482 320.519196,146.745621   C321.580658,145.427933 322.642120,144.110245 323.776581,142.793869   C323.776581,142.793869 323.834595,142.749603 324.546448,142.872955   C326.620850,140.531235 328.695282,138.189514 331.162933,135.458191   C331.351868,135.142136 331.540802,134.826096 332.425690,134.681152   C334.565979,132.989090 336.734131,131.330841 338.839996,129.597000   C341.963257,127.025452 345.042419,124.400322 348.119812,121.855476   C348.119812,121.855476 348.145386,121.910912 348.147766,122.449547   C348.440582,122.620659 348.733368,122.791771 349.258575,123.405174   C349.474945,123.677383 349.752625,123.852074 350.080292,124.625595   C350.773071,125.000870 351.465851,125.376144 352.463196,126.291153   C352.849609,126.428673 353.235992,126.566200 353.284973,127.374580   C354.832184,129.273743 356.379364,131.172897 358.285065,133.649689   C360.618011,136.318558 362.890289,139.043625 365.298584,141.642670   C368.632385,145.240540 375.209778,144.791779 377.655853,140.642578   C379.031311,133.389053 380.503204,126.152153 381.758881,118.877945   C383.486298,108.870766 385.050171,98.835365 386.641083,88.190140   C386.631927,87.774841 386.622772,87.359550 387.225037,86.722221   C387.473328,86.146294 387.721619,85.570366 387.914429,84.470795   C387.642059,84.301422 387.369690,84.132050 387.172333,84.015099   C387.172333,84.015099 387.227203,83.941879 387.348236,83.265564   C387.329620,82.578857 387.311005,81.892159 387.898102,80.802437   C388.457703,78.111771 389.017273,75.421097 389.466156,71.960167   C389.518677,71.448685 389.571198,70.937202 389.705353,70.515175   C389.705353,70.515175 389.616852,70.524559 389.417572,69.711937   C389.420319,69.433060 389.423065,69.154175 390.100647,68.856834   C390.186035,67.904137 390.271423,66.951439 390.353302,65.373451   C390.433502,64.335571 390.513702,63.297695 390.794189,61.511715   C389.789490,60.105839 388.784821,58.699966 387.523895,56.866650   C387.371033,56.565685 387.164368,56.307854 386.676910,55.665188   C386.420746,55.411266 386.120483,55.337841 384.967682,55.239601   C381.239014,54.895393 377.313232,53.627792 373.817383,54.374100   C361.636200,56.974575 349.591095,60.222313 337.518463,63.318424   C324.803894,66.579163 312.117126,69.948242 299.168182,73.335388   C305.036987,79.526932 311.447540,86.024529 317.496307,92.843102   C319.178955,94.739883 319.790222,97.587120 320.415283,100.414551   C320.407501,101.026039 320.399750,101.637527 319.925201,102.489250   C319.649567,102.700981 319.373962,102.912704 318.396698,103.112747   C317.650421,104.115273 316.904175,105.117798 315.658844,106.462273   C315.035217,107.230110 314.411621,107.997955 313.131348,108.871475   C312.481232,109.628677 311.831116,110.385872 310.616791,111.496643   C308.106140,114.032509 305.595490,116.568375 302.413177,119.125359   C302.010590,119.800415 301.608002,120.475471 300.789673,121.419220   C300.516388,121.611069 300.284790,121.844299 299.368103,122.153351   C298.725647,123.191628 298.083160,124.229897 296.833527,125.580162   C293.924072,128.444809 291.014618,131.309448 287.577728,134.167603   C287.377014,134.438095 287.176331,134.708588 286.527649,135.176041   C286.247467,135.369492 286.058044,135.629150 285.453918,136.085495   C285.291199,136.378403 285.128479,136.671326 285.000000,136.999390   C285.000000,136.999390 284.963654,136.966476 284.456635,137.089417   C284.293610,137.381744 284.130585,137.674088 284.000000,138.000000  M331.053711,299.635925   C331.378967,299.716278 331.704193,299.796631 332.781036,299.743561   C333.273193,299.615356 333.765350,299.487152 334.239227,300.164978   C338.813416,301.465271 343.322296,303.221588 347.987030,303.889587   C350.653229,304.271423 353.573212,302.881500 357.216522,302.316315   C361.786926,300.798187 366.608032,299.781860 370.872589,297.651489   C378.430084,293.876099 384.454742,288.365051 387.376343,279.747833   C387.464172,279.437042 387.552032,279.126282 388.024933,278.175049   C388.116333,277.043488 388.207733,275.911896 389.017365,274.854370   C389.295135,274.529236 389.572906,274.204102 389.729340,273.160858   C389.866791,271.735718 390.004242,270.310547 390.114136,268.973145   C390.114136,268.973145 390.186493,268.913147 390.340820,268.185608   C390.328217,267.194855 390.315643,266.204071 390.896301,264.818268   C390.726654,262.913483 390.557007,261.008667 390.414185,258.382568   C390.492981,257.665314 390.571747,256.948059 390.911865,255.568985   C390.379150,254.640182 389.846405,253.711380 389.279388,252.233627   C389.292511,251.867935 389.305634,251.502243 389.606384,250.830780   C389.344025,250.624710 389.081696,250.418625 388.515320,249.761383   C388.468750,249.224167 388.422180,248.686966 388.633301,247.823502   C388.366852,247.616455 388.100372,247.409409 387.472321,246.762421   C387.404938,246.584961 387.337555,246.407501 387.469147,245.795715   C387.428314,245.411255 387.214661,245.211838 386.531647,244.551987   C385.879242,243.054550 385.226868,241.557114 384.728302,239.587845   C384.554932,239.200974 384.278717,239.102448 383.749054,238.711914   C383.738007,238.512360 383.726929,238.312805 383.869843,237.478790   C382.902985,236.666367 381.936096,235.853943 381.000458,235.000778   C381.000458,235.000778 380.954010,235.022461 380.879425,234.497711   C380.580231,234.345673 380.281006,234.193649 379.684906,233.432800   C377.684357,232.014374 375.683807,230.595947 373.668610,228.549530   C372.743683,228.088135 371.818787,227.626755 370.915314,227.097946   C370.915314,227.097946 370.847778,227.076889 370.791290,226.598053   C370.565125,226.252426 370.285583,226.201874 369.341553,226.351654   C369.148407,226.279663 368.955231,226.207687 368.573547,225.466049   C366.665771,224.831726 364.757965,224.197403 362.217010,223.450409   C361.799469,223.357254 361.381958,223.264099 360.838623,222.647034   C360.202545,222.638519 359.566467,222.630005 358.434937,222.535706   C358.102631,222.571320 357.770325,222.606918 357.183929,221.993515   C355.774261,221.930511 354.364624,221.867493 352.314484,221.732559   C351.886902,221.764328 351.459351,221.796112 350.287842,221.517197   C342.999603,220.535889 336.103363,221.273132 330.083038,226.207932   C330.083038,226.207932 330.170532,226.279068 329.476776,226.219879   C327.967224,227.133255 326.457672,228.046616 324.346100,229.210037   C322.907990,230.820862 321.469910,232.431702 319.374603,234.203491   C318.983734,235.168091 318.592896,236.132706 317.598755,237.405960   C316.820099,238.628174 316.041412,239.850372 314.531494,241.270508   C314.281708,242.497635 314.031921,243.724762 313.589966,245.406143   C313.433594,245.695755 313.262909,245.976685 312.727936,246.351379   C312.514557,246.572922 312.519196,246.789795 312.287262,247.681290   C310.833588,251.808167 307.649475,252.130753 303.810211,252.151093   C300.421722,252.169037 297.039001,253.288544 293.437134,254.178940   C293.519073,254.479691 293.601044,254.780457 293.777069,255.999664   C293.754639,260.958984 293.732239,265.918335 293.266266,271.070374   C293.512360,271.709076 293.758484,272.347748 294.003662,272.996338   C294.003662,272.996338 294.013580,272.995300 294.264099,273.612152   C295.889618,273.522919 297.515106,273.433685 299.977570,273.264313   C301.938538,273.278687 303.899536,273.293060 305.794342,273.893860   C305.966736,274.406433 306.139130,274.919037 306.709839,276.615936   C306.960022,274.700287 307.050720,274.005920 307.717499,273.259430   C308.102356,273.276245 308.487213,273.293060 309.138306,273.856384   C310.022125,274.271484 310.905914,274.686584 312.198212,275.690582   C312.822693,277.449341 313.447174,279.208130 313.961273,281.663879   C315.045441,282.974792 316.129639,284.285706 317.198029,286.321594   C317.101654,286.543274 317.005280,286.764954 316.411774,287.293854   C317.715027,287.990356 319.018311,288.686890 320.491943,289.543640   C320.491943,289.543640 320.644165,289.721222 320.283142,290.379211   C321.097870,291.090027 321.912628,291.800873 323.031097,292.931030   C323.425812,293.245270 323.820557,293.559479 324.241608,294.568512   C325.568298,295.190430 326.894958,295.812378 328.149628,297.095795   C328.411407,297.416962 328.673218,297.738159 329.171875,298.614319   C329.735565,298.785278 330.299225,298.956238 330.993896,299.008942   C330.993896,299.008942 330.865265,299.123993 331.053711,299.635925  M158.118240,110.559731   C158.434158,110.668434 158.750061,110.777130 159.095200,110.920074   C159.095200,110.920074 159.133316,110.896072 159.074265,111.609444   C161.094193,113.343895 163.114105,115.078354 165.389496,117.248871   C165.641632,117.471558 165.893784,117.694244 166.121735,118.450981   C166.397018,118.652184 166.672302,118.853386 166.999390,119.005287   C166.999390,119.005287 166.949631,119.060158 167.177322,119.708588   C168.532684,120.306702 169.888062,120.904816 171.749771,121.589493   C171.899231,121.673042 172.048706,121.756599 172.308258,122.526329   C174.634842,123.473106 176.961426,124.419891 179.743469,125.542542   C179.743469,125.542542 180.164749,125.789352 180.317001,126.495949   C181.876465,127.000198 183.435928,127.504456 185.220490,128.792191   C185.283081,130.147995 185.345673,131.503815 185.164673,133.787781   C185.229645,142.453720 185.294632,151.119659 185.350281,160.048996   C185.350281,160.048996 185.653915,160.154388 185.653915,160.154388   C185.653915,160.154388 185.813965,159.825775 186.224915,159.598053   C186.514984,159.470749 186.774399,159.297531 187.923157,159.271347   C195.287018,159.207092 202.650879,159.142853 210.023422,159.304871   C210.023422,159.304871 210.389633,159.227829 210.389633,159.227829   C210.389633,159.227829 210.081802,159.014496 210.217209,158.083527   C210.261520,149.262985 210.119812,140.434433 210.500015,131.628387   C210.580414,129.766281 212.146347,127.319984 213.759796,126.294510   C218.511368,123.274483 223.705612,120.962387 228.587479,118.133156   C235.284393,114.252022 239.384659,107.900253 242.975281,101.410095   C249.194809,90.168091 247.390305,78.019585 246.313202,65.504570   C245.314041,63.567177 244.314880,61.629780 243.189270,59.004238   C242.592743,57.749123 241.996201,56.494003 241.799911,54.593342   C237.943207,50.024323 234.231964,45.318569 230.142563,40.968292   C228.890366,39.636223 226.600922,39.279194 224.260651,38.385929   C224.098419,38.313107 223.936203,38.240288 223.655243,37.459724   C223.070618,36.919395 222.560699,36.251949 221.890137,35.857792   C211.587372,29.801735 200.354065,30.471998 189.151840,31.662771   C186.405487,31.954702 183.798904,33.561340 180.477844,34.526741   C177.279709,35.748020 173.730530,36.440868 170.948730,38.288857   C162.324265,44.018192 155.257858,51.170879 151.974899,62.004528   C150.275925,65.830582 147.534714,69.471710 149.688965,74.558067   C149.665207,74.937401 149.641449,75.316734 148.982910,76.146805   C149.190613,79.868248 149.398331,83.589691 149.609100,87.871025   C149.619354,88.244133 149.629608,88.617249 149.276581,89.494041   C149.740479,90.425262 150.204376,91.356483 150.652008,92.855408   C150.634750,93.233559 150.617493,93.611702 150.194656,94.556877   C152.142929,98.692108 154.091202,102.827339 156.001831,107.000305   C156.001831,107.000305 156.043213,106.963120 155.989807,107.640846   C156.637131,108.446411 157.284470,109.251984 157.990417,110.001297   C157.990417,110.001297 157.939331,110.060982 158.118240,110.559731  M72.993866,298.960907   C72.993866,298.960907 72.961655,298.941833 73.600266,298.914307   C74.847412,298.248779 76.094559,297.583221 77.788811,296.583405   C78.016106,296.291809 78.243401,296.000183 78.936691,295.945160   C79.620941,295.264343 80.305191,294.583496 81.627708,293.707794   C85.282768,288.368439 89.317978,283.239441 92.436798,277.603363   C94.061516,274.667328 95.413063,273.003418 98.910492,273.229034   C102.849609,273.483185 106.817741,273.287537 110.983383,273.287537   C110.983383,266.242676 110.983383,259.528717 110.983383,252.678619   C106.482750,252.678619 102.355827,252.584824 98.235481,252.709244   C95.121368,252.803284 93.535004,251.427139 92.615707,248.478348   C91.540276,245.028732 90.669472,241.168747 88.488541,238.475967   C82.188583,230.697525 74.282982,224.344452 64.356613,222.481903   C54.179924,220.572388 44.079712,220.100616 34.102711,226.116852   C20.513952,234.311005 11.450663,250.998337 13.082008,266.601959   C13.765029,273.135010 15.853385,278.589020 19.156588,284.463898   C19.793444,285.284454 20.430300,286.105042 21.447483,287.245789   C21.684269,287.481140 21.948980,287.679169 22.149443,288.557648   C25.466133,291.326477 28.782824,294.095276 32.060947,296.894440   C32.060947,296.894440 32.109131,296.903412 32.222038,297.600708   C36.882519,299.281555 41.542999,300.962402 46.834694,302.564209   C47.256683,302.522583 47.678673,302.480927 48.548496,303.152527   C51.996849,302.936066 55.445202,302.719635 59.736347,302.496674   C60.015709,302.526428 60.295067,302.556213 60.412674,302.716675   C60.412674,302.716675 60.565609,302.801758 60.565609,302.801758   C60.565609,302.801758 60.462307,302.581909 61.238960,302.509064   C61.757195,302.546814 62.275433,302.584534 63.488792,302.890503   C64.827858,302.125397 66.166924,301.360291 68.131042,300.508392   C68.341339,300.503998 68.551643,300.499603 69.421463,300.794617   C70.600540,300.186310 71.779610,299.578033 72.993866,298.960907  M185.864960,351.409088   C185.616806,351.901306 185.368652,352.393494 185.010895,353.832153   C185.061737,362.597870 185.112595,371.363556 184.687210,380.375610   C184.508850,380.386963 184.330475,380.398315 183.540344,380.088593   C183.022629,380.388184 182.504913,380.687775 181.427261,381.421295   C170.974731,386.503418 163.097000,393.943420 158.781982,405.028625   C155.667313,413.030151 155.879883,421.184875 157.000427,429.341644   C158.503281,440.281372 164.979965,448.574829 173.624191,454.592407   C178.707504,458.131104 185.181305,460.974060 191.254517,461.491608   C200.960892,462.318756 210.738419,461.815460 219.834229,456.071899   C226.243835,452.024567 231.503143,447.595154 235.587769,440.721802   C235.837997,439.708679 236.088226,438.695526 236.506317,437.208130   C236.612900,437.078674 236.719498,436.949219 237.522934,436.622803   C238.553391,432.332428 239.583847,428.042084 240.473389,422.911835   C240.495209,420.364899 240.517029,417.817963 240.844513,414.624664   C240.358383,413.666748 239.872253,412.708801 239.371277,411.160126   C239.387222,410.766815 239.403168,410.373535 239.707138,409.554504   C239.272552,408.946503 238.837982,408.338501 238.379456,407.202484   C238.429382,406.855499 238.479309,406.508484 238.748978,405.785248   C238.452499,405.589691 238.156006,405.394165 237.432220,404.553711   C236.526886,402.169525 236.061386,399.475494 234.638702,397.455719   C229.023392,389.483673 222.585571,382.428223 212.123459,379.999298   C211.556061,378.243256 210.988647,376.487183 210.437363,374.009491   C210.308182,367.322876 210.179001,360.636261 210.139465,353.552826   C210.139465,353.552826 210.134323,353.146027 210.325394,352.553589   C202.581863,352.399017 194.838333,352.244446 186.660080,351.922943   C186.660080,351.922943 186.201248,351.843323 185.864960,351.409088  z" fill="#000000" opacity="1.000000" stroke="none"/>
 <path d=" M264.746246,156.998474   C265.605255,156.067032 266.464264,155.135605 267.791565,153.906860   C268.506195,153.403854 268.706757,153.160461 268.861572,152.879379   C268.861572,152.879379 268.965240,152.968628 269.114685,152.784760   C269.506958,152.396255 269.704926,152.154846 269.858002,151.876648   C269.858002,151.876648 269.882080,151.866364 270.249023,151.837585   C272.036377,150.172913 273.456787,148.537018 274.877197,146.901123   C275.713531,146.005280 276.549896,145.109451 278.010071,144.071869   C279.427673,142.959869 280.221436,141.989639 281.015198,141.019409   C281.015228,141.019409 280.998779,141.000000 281.230347,140.905670   C281.739990,140.620697 281.929840,140.364655 282.031525,140.043243   C282.031525,140.043243 282.006409,140.005630 282.237640,139.900360   C282.728394,139.580963 282.899261,139.310776 282.981476,138.984512   C282.981476,138.984512 283.000000,138.999390 283.201996,138.871124   C283.666382,138.539200 283.853577,138.281036 283.965607,137.968353   C283.965607,137.968353 284.000000,138.000000 284.196350,137.867645   C284.657379,137.534271 284.847717,137.278000 284.963654,136.966476   C284.963654,136.966476 285.000000,136.999390 285.194916,136.863831   C285.655243,136.526169 285.845062,136.268402 285.959351,135.954987   C286.058044,135.629150 286.247467,135.369492 286.986084,135.016373   C287.750153,134.711761 287.970337,134.484222 288.105164,134.174088   C291.014618,131.309448 293.924072,128.444809 297.423767,125.313255   C298.707611,124.070534 299.401245,123.094727 300.094849,122.118912   C300.284790,121.844299 300.516388,121.611069 301.282440,121.199783   C302.211761,120.354980 302.648315,119.729614 303.084869,119.104240   C305.595490,116.568375 308.106140,114.032509 311.210510,111.269203   C312.465515,110.283104 313.126740,109.524445 313.787994,108.765793   C314.411621,107.997955 315.035217,107.230110 316.221588,106.226151   C317.555664,105.034836 318.326996,104.079643 319.098328,103.124435   C319.373962,102.912704 319.649567,102.700981 320.396240,102.321098   C320.875885,101.434738 320.884460,100.716522 320.893005,99.998322   C319.790222,97.587120 319.178955,94.739883 317.496307,92.843102   C311.447540,86.024529 305.036987,79.526932 299.168182,73.335388   C312.117126,69.948242 324.803894,66.579163 337.518463,63.318424   C349.591095,60.222313 361.636200,56.974575 373.817383,54.374100   C377.313232,53.627792 381.239014,54.895393 385.512451,55.520874   C386.303925,56.002472 386.586151,56.099476 386.903870,56.093151   C387.164368,56.307854 387.371033,56.565685 387.726074,57.397789   C388.816833,59.372555 389.705353,60.816185 390.593903,62.259815   C390.513702,63.297695 390.433502,64.335571 390.154846,65.865654   C389.779541,67.196999 389.602692,68.036148 389.425812,68.875290   C389.423065,69.154175 389.420319,69.433060 389.551819,70.095016   C389.686096,70.478104 389.623749,70.425720 389.623749,70.425720   C389.571198,70.937202 389.518677,71.448685 389.226715,72.548424   C388.422302,75.826271 387.857330,78.515862 387.292358,81.205444   C387.311005,81.892159 387.329620,82.578857 387.080475,83.792358   C386.746338,85.194191 386.679962,86.069221 386.613647,86.944252   C386.622772,87.359550 386.631927,87.774841 386.379517,88.714333   C384.873413,94.690475 383.370300,100.098610 382.437714,105.603416   C380.447449,117.351814 378.752899,129.150299 376.937195,140.928268   C375.209778,144.791779 368.632385,145.240540 365.298584,141.642670   C362.890289,139.043625 360.618011,136.318558 358.169525,133.004700   C356.576813,130.474380 355.099609,128.589050 353.622406,126.703720   C353.235992,126.566200 352.849609,126.428673 352.236816,125.730942   C351.370880,124.756905 350.731262,124.343071 350.091675,123.929245   C349.752625,123.852074 349.474945,123.677383 349.052429,122.966034   C348.670624,122.255615 348.436981,122.050293 348.145386,121.910912   C348.145386,121.910912 348.119812,121.855476 348.034424,121.519669   C346.600586,121.400925 344.791412,121.137856 343.980835,121.915565   C339.757263,125.967934 335.787720,130.285049 331.729767,134.510056   C331.540802,134.826096 331.351868,135.142136 330.642822,135.730972   C328.026642,138.252365 325.930603,140.500977 323.834595,142.749603   C323.834595,142.749603 323.776581,142.793869 323.432861,142.872711   C321.998474,144.207535 320.907806,145.463501 319.817169,146.719482   C319.817169,146.719482 319.785095,146.783920 319.436768,146.896973   C316.674316,149.600754 314.260162,152.191498 311.846039,154.782227   C311.846039,154.782227 311.832916,154.832047 311.494202,154.916336   C310.057648,156.265808 308.959839,157.530991 307.862030,158.796173   C306.697815,160.044479 305.533600,161.292786 303.779785,162.779327   C302.073792,164.266937 300.957458,165.516296 299.841125,166.765656   C299.841125,166.765656 299.820557,166.818375 299.470337,166.907471   C296.702332,169.601212 294.284607,172.205887 291.866852,174.810547   C291.866852,174.810547 291.860626,174.856918 291.549255,174.911438   C290.752228,175.529099 290.266571,176.092239 289.780914,176.655365   C289.780914,176.655365 289.732391,176.737473 289.387451,176.880585   C286.855652,180.135056 284.668854,183.246399 282.482025,186.357758   C281.334595,189.303528 280.187195,192.249283 278.933899,195.878265   C278.781708,196.772202 278.735382,196.982956 278.513184,197.277588   C278.263916,197.938980 278.190521,198.516495 278.104767,199.556580   C278.019714,208.373978 277.947021,216.728806 277.716187,225.455627   C277.665100,232.858032 277.772095,239.888474 277.931763,247.381195   C277.953918,251.253281 277.923431,254.663071 277.731201,258.441650   C277.674744,263.514557 277.779999,268.218750 277.927277,273.282166   C277.938599,274.121857 277.907959,274.602264 277.720551,275.448334   C277.671783,279.850433 277.779724,283.886902 277.939941,288.336212   C277.956238,289.856201 277.920258,290.963287 277.764648,292.296448   C277.725647,293.324707 277.806335,294.126984 277.940308,295.373657   C277.957947,297.904236 277.922272,299.990356 277.727478,302.433411   C277.659973,306.162720 277.751587,309.535126 277.887817,313.211731   C278.060028,314.318542 278.187653,315.121124 278.315277,315.923676   C278.359650,316.332825 278.404022,316.741943 278.272217,317.610474   C277.540863,319.684875 276.985626,321.299927 276.430420,322.914948   C275.253967,329.834869 270.286804,333.467194 263.985718,336.412720   C260.774719,337.389069 258.217804,338.462616 255.660873,339.536194   C255.184723,339.540314 254.708572,339.544403 253.841461,339.762024   C253.450500,339.975555 253.272980,340.052307 253.312088,339.719879   C253.234116,339.197479 253.117020,339.007538 252.627090,338.670227   C248.521347,338.649292 244.788437,338.775726 240.586487,338.960327   C226.060898,338.976013 212.004395,338.933563 197.766098,338.802185   C197.074371,338.770477 196.564407,338.827637 195.585297,338.941162   C185.061050,338.958679 175.005981,338.919830 164.839783,338.854034   C164.501724,338.787933 164.276810,338.802582 163.613464,338.926941   C161.104156,338.971130 159.035309,338.959534 156.675217,338.809631   C155.256485,339.054382 154.128998,339.437439 153.001495,339.820465   C150.556839,341.450287 148.112183,343.080139 145.116882,344.604614   C143.722824,344.957214 142.714005,345.248749 142.060944,345.898071   C132.885788,355.020660 123.736732,364.169983 114.656799,373.387085   C113.792503,374.264404 113.434181,375.640106 112.840965,376.784424   C112.840958,376.784424 112.472160,376.928253 111.979469,377.144226   C103.938797,384.828430 96.390816,392.296661 88.842834,399.764923   C88.842834,399.764923 88.813797,399.816559 88.464119,399.910095   C85.338676,402.890137 82.562912,405.776703 79.787140,408.663269   C79.787125,408.663239 79.769829,408.733765 79.380173,408.806946   C75.911102,410.070557 72.831696,411.260986 69.752289,412.451416   C68.811012,412.480896 67.869728,412.510376 66.671684,412.424744   C66.414917,412.309631 66.399567,411.962708 66.136703,411.714783   C63.261971,410.323639 60.650105,409.180450 58.038239,408.037231   C58.038242,408.037231 58.001427,407.998413 58.025818,407.616577   C56.871750,404.726257 55.693287,402.217743 54.514824,399.709259   C54.517174,398.401917 54.519520,397.094604 54.667084,395.235199   C54.911053,394.496735 55.009808,394.310333 55.108562,394.123932   C55.108562,394.123932 55.429863,393.742279 55.752888,393.295166   C56.653362,391.515625 57.230812,390.183167 57.808266,388.850739   C57.808270,388.850739 57.960976,388.905731 58.180740,388.708496   C58.953262,387.360779 59.506012,386.210266 60.058769,385.059753   C60.058769,385.059753 60.009354,385.001221 60.347893,385.044006   C61.203445,384.515869 61.720455,383.944946 62.237480,383.374023   C64.096405,381.437714 65.955322,379.501373 68.384064,377.330933   C69.371613,376.496368 69.789330,375.895935 70.207047,375.295502   C71.258682,374.292786 72.310303,373.290039 73.913010,371.995087   C75.714325,370.243011 76.964569,368.783142 78.214806,367.323273   C79.225067,366.262604 80.235321,365.201965 81.806351,363.879456   C83.663887,362.215668 84.960655,360.813751 86.257431,359.411804   C87.276016,358.351654 88.294594,357.291504 89.844704,355.952820   C90.992996,354.891235 91.609749,354.108154 92.226501,353.325104   C92.226501,353.325104 92.266541,353.264435 92.571289,353.165955   C93.319199,352.482300 93.762367,351.897095 94.205528,351.311859   C96.085022,349.421204 97.964516,347.530548 100.387299,345.351898   C101.339127,344.449219 101.747673,343.834473 102.156219,343.219757   C107.281555,337.567505 112.803535,332.211395 117.347977,326.125397   C119.320892,323.483215 119.282249,319.338989 120.332291,315.444733   C120.507317,315.012451 120.773033,315.013916 120.942093,315.165344   C121.335487,315.197510 121.589905,315.111298 121.771812,314.945496   C121.866676,314.859039 121.854828,314.632568 121.855713,314.469116   C121.950897,296.964386 122.042717,279.459656 122.217216,261.769897   C122.245094,261.071716 122.190491,260.558563 122.072784,259.623566   C122.054367,257.783630 122.099045,256.365509 122.282784,254.657227   C122.332726,252.929489 122.243607,251.491913 122.092346,249.585846   C121.998703,234.749420 121.999207,220.381226 121.893036,206.013855   C121.880508,204.318222 121.282867,202.626923 121.002731,200.943771   C121.049011,200.953934 121.128212,201.005997 121.128204,201.005997   C121.300629,200.399704 121.473053,199.793427 121.793381,198.649963   C122.152847,197.363205 122.364410,196.613602 122.575974,195.864014   C122.543434,189.578598 128.441910,180.857742 133.416336,178.135223   C136.102722,176.664963 139.113342,175.787170 142.845856,174.737213   C147.375702,174.755966 151.037277,174.618225 154.699066,174.613068   C179.354752,174.578384 204.010529,174.592972 228.666077,174.518494   C230.780533,174.512100 232.893402,173.974976 235.007004,173.684387   C236.971130,173.680237 238.935272,173.676071 241.713303,173.754349   C247.061783,171.620682 251.596359,169.404556 256.130951,167.188446   C258.638763,164.642426 261.146576,162.096390 264.158508,159.244232   C264.690491,158.291550 264.718384,157.645004 264.746246,156.998474  M235.310043,203.835419   C235.167450,203.619751 235.024734,203.215103 234.882278,203.215195   C213.544922,203.228226 192.207565,203.270493 170.289841,203.258728   C169.902161,203.276871 169.514481,203.295013 168.399612,203.115723   C166.923691,203.211609 165.447784,203.307480 163.317734,203.584595   C162.521622,204.007996 161.725510,204.431412 160.442398,205.040573   C160.197525,205.285339 159.952652,205.530121 159.118225,206.146088   C153.367752,209.342697 150.439804,214.387878 150.395950,220.809113   C150.246918,242.630402 150.475418,264.455170 150.209915,286.274384   C150.089951,296.133575 153.024155,303.592010 163.265244,306.974762   C163.265244,306.974762 163.634598,307.004639 163.634598,307.004639   C163.634598,307.004639 164.005875,306.975586 164.928940,306.804474   C188.227142,306.761719 211.525330,306.718964 235.360962,307.048187   C236.563522,306.664154 237.766083,306.280121 239.329880,305.295380   C242.416290,302.530182 247.030060,300.300171 248.230530,296.874176   C250.023682,291.756775 249.946976,285.776398 249.730576,280.199432   C248.902100,258.849579 251.936401,237.414810 248.159027,216.120987   C247.226120,210.862000 242.144302,204.532135 235.016541,204.476608   C235.016541,204.476608 235.015152,204.149002 235.310043,203.835419  M277.472473,194.507874   C277.472473,194.507874 277.511047,194.493744 277.472473,194.507874  z" fill="#086BBB" opacity="1.000000" stroke="none"/>
 <path d=" M246.008301,66.006271   C247.390305,78.019585 249.194809,90.168091 242.975281,101.410095   C239.384659,107.900253 235.284393,114.252022 228.587479,118.133156   C223.705612,120.962387 218.511368,123.274483 213.759796,126.294510   C212.146347,127.319984 210.580414,129.766281 210.500015,131.628387   C210.119812,140.434433 210.261520,149.262985 210.115082,158.546570   C210.012955,159.009598 210.014740,159.078598 210.014740,159.078598   C202.650879,159.142853 195.287018,159.207092 187.446365,158.701385   C186.959793,151.347351 187.046967,144.560791 186.870575,137.781067   C186.827576,136.129013 185.918900,134.499496 185.408264,132.859619   C185.345673,131.503815 185.283081,130.147995 184.992050,128.114380   C183.230652,126.887489 181.697708,126.338425 180.164749,125.789352   C180.164749,125.789352 179.743469,125.542542 179.357758,125.168556   C176.714096,123.809761 174.456131,122.824959 172.198181,121.840149   C172.048706,121.756599 171.899231,121.673042 171.370087,121.234680   C169.643494,120.273293 168.296555,119.666725 166.949631,119.060158   C166.949631,119.060158 166.999390,119.005287 166.902939,118.801582   C166.638779,118.320000 166.418594,118.093018 166.145935,117.916931   C165.893784,117.694244 165.641632,117.471558 165.163223,116.714966   C163.002411,114.419403 161.067871,112.657738 159.133316,110.896072   C159.133316,110.896072 159.095200,110.920074 158.931427,110.715935   C158.544678,110.263924 158.268570,110.113655 157.939331,110.060982   C157.939331,110.060982 157.990417,110.001297 157.951370,109.688690   C157.289291,108.571762 156.666245,107.767441 156.043213,106.963120   C156.043213,106.963120 156.001831,107.000305 156.021790,106.601105   C154.227905,102.131210 152.414078,98.060532 150.600235,93.989853   C150.617493,93.611702 150.634750,93.233559 150.721436,92.210632   C150.407181,90.707359 150.023529,89.848854 149.639862,88.990356   C149.629608,88.617249 149.619354,88.244133 149.731079,87.119492   C149.774612,82.810669 149.696136,79.253365 149.617676,75.696068   C149.641449,75.316734 149.665207,74.937401 150.094986,74.050896   C151.208374,69.590958 151.915726,65.638184 152.623077,61.685413   C155.257858,51.170879 162.324265,44.018192 170.948730,38.288857   C173.730530,36.440868 177.279709,35.748020 181.128983,34.647156   C192.527603,32.717430 203.269653,31.658840 213.973129,35.014271   C217.247757,36.040840 220.507462,37.115067 223.774002,38.167473   C223.936203,38.240288 224.098419,38.313107 224.637970,38.734573   C230.476746,44.468445 235.938202,49.853668 241.399673,55.238888   C241.996201,56.494003 242.592743,57.749123 243.255295,59.709160   C244.216980,62.278145 245.112640,64.142204 246.008301,66.006271  M186.856232,98.171379   C186.856232,98.171379 186.856094,98.226624 187.169800,98.851486   C192.600540,102.898254 201.349442,103.277847 207.674469,99.581268   C209.214569,98.221313 210.608368,96.631973 212.319717,95.540520   C220.381836,90.398727 223.376190,80.705589 218.940002,72.349327   C217.545914,69.723320 214.967896,67.747528 213.074539,65.360863   C207.071823,57.794186 191.869415,56.737602 184.549850,62.856964   C174.311523,71.416496 173.579269,85.754570 183.054718,95.875938   C184.304138,96.636200 185.553558,97.396469 186.856232,98.171379  M152.346695,91.833336   C153.240601,92.462662 154.134491,93.091988 155.028397,93.721313   C155.513229,92.419891 156.335251,91.121246 156.345963,89.815941   C156.351639,89.124466 154.947357,88.421417 154.179596,87.723602   C153.533081,88.873222 152.886566,90.022842 152.346695,91.833336  z" fill="#086BBC" opacity="1.000000" stroke="none"/>
 <path d=" M234.935150,440.938660   C231.503143,447.595154 226.243835,452.024567 219.834229,456.071899   C210.738419,461.815460 200.960892,462.318756 191.254517,461.491608   C185.181305,460.974060 178.707504,458.131104 173.624191,454.592407   C164.979965,448.574829 158.503281,440.281372 157.000427,429.341644   C155.879883,421.184875 155.667313,413.030151 158.781982,405.028625   C163.097000,393.943420 170.974731,386.503418 181.965332,381.090210   C183.052963,380.642609 183.602539,380.526123 184.152115,380.409637   C184.330475,380.398315 184.508850,380.386963 185.232666,380.029297   C186.113754,377.933228 186.684357,376.190826 186.739426,374.432281   C186.884811,369.788910 187.042603,365.123749 186.752411,360.495056   C186.450974,355.687469 187.845352,353.551636 193.131592,353.986053   C198.732162,354.446320 204.407272,354.000031 210.049835,353.949646   C210.179001,360.636261 210.308182,367.322876 210.294678,374.760040   C210.842484,377.254974 211.532990,378.999359 212.223495,380.743744   C222.585571,382.428223 229.023392,389.483673 234.638702,397.455719   C236.061386,399.475494 236.526886,402.169525 237.778275,405.141083   C238.259293,405.872803 238.394272,406.017151 238.529236,406.161499   C238.479309,406.508484 238.429382,406.855499 238.374359,407.792236   C238.719208,408.914703 239.069168,409.447479 239.419128,409.980225   C239.403168,410.373535 239.387222,410.766815 239.295929,411.779846   C239.660019,413.356720 240.099442,414.313873 240.538849,415.271027   C240.517029,417.817963 240.495209,420.364899 240.288055,423.579834   C239.010513,428.438477 237.918304,432.629089 236.826096,436.819733   C236.719498,436.949219 236.612900,437.078674 236.190796,437.649750   C235.561905,439.040466 235.248520,439.989563 234.935150,440.938660  M208.667664,435.081879   C208.905716,434.966858 209.065567,434.783630 209.784607,434.347931   C210.609848,433.621765 211.435089,432.895599 212.893753,431.933380   C214.116241,429.171051 215.338745,426.408752 216.574005,422.883392   C216.599060,421.356476 216.624115,419.829590 216.804260,417.519012   C215.742126,414.914429 214.679993,412.309845 213.415390,409.679413   C213.415390,409.679413 213.214142,409.713562 213.157318,409.053589   C212.058197,408.080902 210.959076,407.108215 209.209854,405.735626   C206.167801,404.675232 203.199280,403.103455 200.069473,402.653351   C191.742813,401.455933 186.740677,406.641510 181.792618,413.090637   C179.715408,416.750977 178.787949,420.443695 181.511566,424.892761   C181.646515,425.303040 181.781448,425.713348 181.984940,426.515869   C182.062454,426.782684 182.216736,426.993286 182.560669,427.734802   C182.659225,427.908051 182.757767,428.081268 182.927734,428.631714   C183.034866,428.881470 183.215256,429.055176 183.699295,429.759277   C184.473114,430.496216 185.246933,431.233124 186.294388,432.364227   C186.506409,432.607513 186.750320,432.812988 187.543106,433.362122   C188.315598,434.074097 189.088074,434.786102 190.131378,435.795898   C190.355530,435.954437 190.603867,436.050323 191.609131,436.382782   C196.266174,438.265625 200.948578,438.445099 206.242889,436.739075   C206.917007,436.369415 207.591110,435.999756 208.320160,435.398560   C208.320160,435.398560 208.303513,435.161163 208.667664,435.081879  z" fill="#086AB8" opacity="1.000000" stroke="none"/>
 <path d=" M62.793663,302.622284   C62.275433,302.584534 61.757195,302.546814 60.877930,302.574768   C60.516903,302.640472 60.574425,302.585968 60.574425,302.585968   C60.295067,302.556213 60.015709,302.526428 58.954636,302.371429   C54.815502,302.310547 51.458084,302.374939 48.100662,302.439301   C47.678673,302.480927 47.256683,302.522583 46.339294,302.312866   C41.265636,300.342163 36.687382,298.622803 32.109131,296.903412   C32.109131,296.903412 32.060947,296.894440 31.979406,296.565613   C28.679119,293.437836 25.460373,290.638855 22.241623,287.839874   C21.948980,287.679169 21.684269,287.481140 21.247074,286.771912   C20.498491,285.461456 19.950317,284.624817 19.402142,283.788208   C15.853385,278.589020 13.765029,273.135010 13.082008,266.601959   C11.450663,250.998337 20.513952,234.311005 34.102711,226.116852   C44.079712,220.100616 54.179924,220.572388 64.356613,222.481903   C74.282982,224.344452 82.188583,230.697525 88.488541,238.475967   C90.669472,241.168747 91.540276,245.028732 92.615707,248.478348   C93.535004,251.427139 95.121368,252.803284 98.235481,252.709244   C102.355827,252.584824 106.482750,252.678619 110.983383,252.678619   C110.983383,259.528717 110.983383,266.242676 110.983383,273.287537   C106.817741,273.287537 102.849609,273.483185 98.910492,273.229034   C95.413063,273.003418 94.061516,274.667328 92.436798,277.603363   C89.317978,283.239441 85.282768,288.368439 81.097916,293.619385   C79.868988,294.256866 79.169838,294.982727 78.470703,295.708588   C78.243401,296.000183 78.016106,296.291809 77.259491,296.556854   C75.473991,297.334167 74.217827,298.138000 72.961655,298.941833   C72.961655,298.941833 72.993866,298.960907 72.635315,298.881287   C71.105156,299.366180 69.933563,299.930695 68.761963,300.495209   C68.551643,300.499603 68.341339,300.503998 67.490067,300.583557   C65.497276,301.313232 64.145470,301.967743 62.793663,302.622284  M38.653061,268.973969   C40.103382,270.967682 41.212112,273.386932 43.067352,274.876221   C48.886158,279.547302 58.536396,280.452606 63.260784,277.165161   C70.320419,272.252747 72.785751,263.702332 70.021423,255.165146   C68.040718,249.048096 56.841377,242.842850 52.830952,244.276871   C41.600086,248.292740 34.486637,254.418137 38.653061,268.973969  z" fill="#0969B7" opacity="1.000000" stroke="none"/>
 <path d=" M390.650543,256.230804   C390.571747,256.948059 390.492981,257.665314 390.270874,259.098419   C390.186096,261.613953 390.244568,263.413635 390.303070,265.213318   C390.315643,266.204071 390.328217,267.194855 390.089661,268.632629   C389.752014,269.293854 389.665588,269.508087 389.579132,269.722321   C389.686920,269.705536 389.867218,269.719910 389.890106,269.666656   C389.997620,269.416412 390.061951,269.147583 390.141693,268.885406   C390.004242,270.310547 389.866791,271.735718 389.573029,273.535522   C389.044189,274.200256 388.671661,274.490295 388.299103,274.780334   C388.207733,275.911896 388.116333,277.043488 387.647217,278.610565   C387.040619,279.246124 386.901031,279.496033 386.850800,279.795837   C384.454742,288.365051 378.430084,293.876099 370.872589,297.651489   C366.608032,299.781860 361.786926,300.798187 356.318298,302.195160   C348.365906,301.169006 341.311707,300.264008 334.257507,299.359009   C333.765350,299.487152 333.273193,299.615356 332.212738,299.681885   C331.401520,299.428406 331.141785,299.263000 330.865265,299.123993   C330.865265,299.123993 330.993896,299.008942 330.888489,298.809631   C330.167084,298.426666 329.551056,298.242981 328.934998,298.059326   C328.673218,297.738159 328.411407,297.416962 328.067535,296.513214   C326.728729,295.244995 325.471985,294.559357 324.215271,293.873718   C323.820557,293.559479 323.425812,293.245270 322.887146,292.396118   C322.043549,291.147888 321.343842,290.434570 320.644165,289.721222   C320.644165,289.721222 320.491943,289.543640 320.300903,289.164642   C319.042877,288.185974 317.975891,287.586273 316.908936,286.986603   C317.005280,286.764954 317.101654,286.543274 317.183289,285.631653   C316.136230,283.616760 315.103943,282.291840 314.071686,280.966888   C313.447174,279.208130 312.822693,277.449341 311.893982,275.075745   C310.683838,274.077209 309.777954,273.693542 308.872070,273.309875   C308.487213,273.293060 308.102356,273.276245 307.109436,273.217529   C306.287750,273.219543 306.074127,273.263489 305.860504,273.307434   C303.899536,273.293060 301.938538,273.278687 299.144653,273.187378   C296.879028,273.072021 295.446289,273.033661 294.013580,272.995300   C294.013580,272.995300 294.003662,272.996338 293.998108,272.635010   C293.898285,271.808350 293.804047,271.343018 293.709808,270.877655   C293.732239,265.918335 293.754639,260.958984 293.775757,255.249207   C293.734222,254.306412 293.694000,254.114044 293.653748,253.921661   C297.039001,253.288544 300.421722,252.169037 303.810211,252.151093   C307.649475,252.130753 310.833588,251.808167 312.626068,247.246765   C313.078461,246.639694 313.116119,246.451904 313.077881,246.248901   C313.262909,245.976685 313.433594,245.695755 313.919373,244.997192   C314.586792,243.416351 314.924774,242.244461 315.262756,241.072586   C316.041412,239.850372 316.820099,238.628174 318.186523,237.110626   C319.193451,235.891037 319.612640,234.966782 320.031799,234.042542   C321.469910,232.431702 322.907990,230.820862 325.011597,229.171204   C327.174866,228.181259 328.672699,227.230148 330.170532,226.279053   C330.170532,226.279068 330.083038,226.207932 330.507263,226.215057   C337.631561,224.757416 344.331665,223.292648 351.031769,221.827881   C351.459351,221.796112 351.886902,221.764328 352.962891,221.984070   C354.886841,222.371231 356.162445,222.506882 357.438019,222.642532   C357.770325,222.606918 358.102631,222.571320 358.831116,222.759064   C359.806335,223.045242 360.385376,223.108093 360.964417,223.170944   C361.381958,223.264099 361.799469,223.357254 362.708984,223.777893   C365.054688,224.782150 366.908386,225.458939 368.762085,226.135727   C368.955231,226.207687 369.148407,226.279663 369.760193,226.549622   C370.370697,226.920654 370.593658,227.030426 370.847778,227.076889   C370.847778,227.076889 370.915314,227.097946 371.010620,227.422791   C371.965027,228.224258 372.824127,228.700882 373.683258,229.177521   C375.683807,230.595947 377.684357,232.014374 379.953552,233.939270   C380.415039,234.702805 380.658966,234.895035 380.954010,235.022461   C380.954010,235.022461 381.000458,235.000778 380.989349,235.357330   C381.890778,236.513672 382.803314,237.313446 383.715820,238.113220   C383.726929,238.312805 383.738007,238.512360 383.888611,239.167175   C384.159302,239.831863 384.341400,239.977600 384.574493,240.059662   C385.226868,241.557114 385.879242,243.054550 386.668579,245.075470   C386.862946,245.881104 387.017822,246.091461 387.270172,246.230026   C387.337555,246.407501 387.404938,246.584961 387.744904,247.244064   C388.136871,247.867050 388.256256,248.008408 388.375610,248.149750   C388.422180,248.686966 388.468750,249.224167 388.745544,250.243011   C389.090118,250.861938 389.204437,250.999237 389.318726,251.136551   C389.305634,251.502243 389.292511,251.867935 389.222412,252.836395   C389.660492,254.369690 390.155518,255.300247 390.650543,256.230804  M355.300781,278.293610   C364.498230,273.938232 368.718658,265.644379 365.600861,256.263763   C363.201996,249.046097 357.035034,243.718552 346.026154,245.008621   C333.818207,246.439194 329.531738,261.578491 334.174103,269.072601   C338.764984,276.483704 345.242889,280.976746 355.300781,278.293610  z" fill="#086AB9" opacity="1.000000" stroke="none"/>
 <path d=" M234.626709,173.533401   C232.893402,173.974976 230.780533,174.512100 228.666077,174.518494   C204.010529,174.592972 179.354752,174.578384 154.699066,174.613068   C151.037277,174.618225 147.375702,174.755966 143.232986,174.766022   C143.795135,174.140076 144.837982,173.092667 145.881561,173.091949   C175.007935,173.071732 204.134369,173.157013 233.260788,173.232208   C233.589462,173.233063 233.917892,173.330200 234.626709,173.533401  z" fill="#063868" opacity="1.000000" stroke="none"/>
 <path d=" M277.874298,225.083633   C277.947021,216.728806 278.019714,208.373978 278.322571,199.539398   C278.552734,199.059631 278.989197,199.081070 278.979187,199.544571   C278.980743,237.005615 278.992249,274.003174 279.003784,311.000702   C278.978149,312.527222 278.952545,314.053741 278.621094,315.751953   C278.187653,315.121124 278.060028,314.318542 277.930847,312.763000   C277.915039,308.698853 277.900818,305.387665 277.886597,302.076508   C277.922272,299.990356 277.957947,297.904236 277.973175,295.017090   C277.929932,293.500854 277.907104,292.785645 277.884277,292.070404   C277.920258,290.963287 277.956238,289.856201 277.972473,287.880432   C277.927582,283.035431 277.902435,279.059052 277.877258,275.082672   C277.907959,274.602264 277.938599,274.121857 277.964539,272.823425   C277.937531,267.361206 277.915253,262.717041 277.892944,258.072876   C277.923431,254.663071 277.953918,251.253281 277.970398,246.920166   C277.928986,239.025772 277.901642,232.054703 277.874298,225.083633  z" fill="#05325E" opacity="1.000000" stroke="none"/>
 <path d=" M279.358917,310.756958   C278.992249,274.003174 278.980743,237.005615 278.949890,199.226196   C278.850037,198.027451 278.769531,197.610580 278.689026,197.193695   C278.735382,196.982956 278.781708,196.772202 278.929138,196.253952   C279.357910,197.170181 279.970703,198.393616 279.971954,199.617676   C280.008759,236.092743 279.985992,272.567902 279.960205,309.043030   C279.959869,309.533142 279.799652,310.023163 279.358917,310.756958  z" fill="#0F5E9F" opacity="1.000000" stroke="none"/>
 <path d=" M120.773033,315.013916   C120.773033,315.013916 120.507317,315.012451 120.374504,315.015381   C120.162071,295.226624 120.018936,275.434937 120.021530,255.643265   C120.023895,237.522354 120.183701,219.401489 120.701172,201.143295   C121.128212,201.005997 121.049011,200.953934 121.050049,201.415009   C121.026382,219.488419 121.017090,237.100815 120.972916,254.713104   C120.922493,274.813416 120.841011,294.913635 120.773033,315.013916  z" fill="#126FBD" opacity="1.000000" stroke="none"/>
 <path d=" M253.272980,340.052307   C253.272980,340.052307 253.450500,339.975555 253.548248,339.970123   C252.718155,340.310242 251.790726,340.956390 250.862350,340.957764   C220.088745,341.002686 189.315018,340.995483 158.541397,340.948334   C157.087738,340.946106 155.634750,340.507904 154.454239,339.979919   C157.209610,339.797729 159.692093,340.002075 162.174789,340.004761   C192.540833,340.037781 222.906906,340.041199 253.272980,340.052307  z" fill="#1065A8" opacity="1.000000" stroke="none"/>
 <path d=" M253.312088,339.719879   C222.906906,340.041199 192.540833,340.037781 162.174789,340.004761   C159.692093,340.002075 157.209610,339.797729 154.260788,339.565002   C153.794540,339.442902 153.892441,339.430054 154.274063,339.368896   C155.425949,339.187775 156.196198,339.067841 156.966461,338.947906   C159.035309,338.959534 161.104156,338.971130 163.837433,338.952759   C164.501877,338.922760 164.950912,338.880981 164.950912,338.880981   C175.005981,338.919830 185.061050,338.958679 195.900238,338.973450   C197.105530,338.929901 197.526703,338.910492 197.947876,338.891083   C212.004395,338.933563 226.060898,338.976013 241.041870,338.999908   C245.644196,338.926727 249.322067,338.872131 252.999939,338.817566   C253.117020,339.007538 253.234116,339.197479 253.312088,339.719879  z" fill="#042D50" opacity="1.000000" stroke="none"/>
 <path d=" M113.166962,376.707947   C113.434181,375.640106 113.792503,374.264404 114.656799,373.387085   C123.736732,364.169983 132.885788,355.020660 142.060944,345.898071   C142.714005,345.248749 143.722824,344.957214 144.777985,344.694336   C134.490799,355.470062 123.991875,366.050781 113.166962,376.707947  z" fill="#063868" opacity="1.000000" stroke="none"/>
 <path d=" M377.296509,140.785431   C378.752899,129.150299 380.447449,117.351814 382.437714,105.603416   C383.370300,100.098610 384.873413,94.690475 386.401062,89.025284   C385.050171,98.835365 383.486298,108.870766 381.758881,118.877945   C380.503204,126.152153 379.031311,133.389053 377.296509,140.785431  z" fill="#063868" opacity="1.000000" stroke="none"/>
 <path d=" M223.714630,37.813599   C220.507462,37.115067 217.247757,36.040840 213.973129,35.014271   C203.269653,31.658840 192.527603,32.717430 181.454086,34.665554   C183.798904,33.561340 186.405487,31.954702 189.151840,31.662771   C200.354065,30.471998 211.587372,29.801735 221.890137,35.857792   C222.560699,36.251949 223.070618,36.919395 223.714630,37.813599  z" fill="#094071" opacity="1.000000" stroke="none"/>
 <path d=" M210.094635,353.751251   C204.407272,354.000031 198.732162,354.446320 193.131592,353.986053   C187.845352,353.551636 186.450974,355.687469 186.752411,360.495056   C187.042603,365.123749 186.884811,369.788910 186.739426,374.432281   C186.684357,376.190826 186.113754,377.933228 185.470779,379.906128   C185.112595,371.363556 185.061737,362.597870 185.291412,353.238525   C185.781708,352.377716 185.991486,352.110504 186.201248,351.843323   C186.201248,351.843323 186.660080,351.922943 187.229065,352.207336   C195.243469,352.709839 202.688904,352.927917 210.134323,353.146027   C210.134323,353.146027 210.139465,353.552826 210.094635,353.751251  z" fill="#05325E" opacity="1.000000" stroke="none"/>
 <path d=" M89.196579,399.804260   C96.390816,392.296661 103.938797,384.828430 111.801620,377.231079   C107.656364,381.960876 103.301430,386.922363 98.697548,391.640991   C95.843857,394.565796 92.612267,397.121948 89.196579,399.804260  z" fill="#083D6C" opacity="1.000000" stroke="none"/>
 <path d=" M185.286469,133.323700   C185.918900,134.499496 186.827576,136.129013 186.870575,137.781067   C187.046967,144.560791 186.959793,151.347351 186.986359,158.604904   C186.774399,159.297531 186.514984,159.470749 185.908386,159.675461   C185.591843,159.752869 185.359619,159.785599 185.359619,159.785599   C185.294632,151.119659 185.229645,142.453720 185.286469,133.323700  z" fill="#0A4C85" opacity="1.000000" stroke="none"/>
 <path d=" M241.599792,54.916115   C235.938202,49.853668 230.476746,44.468445 224.900879,38.779434   C226.600922,39.279194 228.890366,39.636223 230.142563,40.968292   C234.231964,45.318569 237.943207,50.024323 241.599792,54.916115  z" fill="#094071" opacity="1.000000" stroke="none"/>
 <path d=" M332.077728,134.595612   C335.787720,130.285049 339.757263,125.967934 343.980835,121.915565   C344.791412,121.137856 346.600586,121.400925 348.044708,121.490921   C345.042419,124.400322 341.963257,127.025452 338.839996,129.597000   C336.734131,131.330841 334.565979,132.989090 332.077728,134.595612  z" fill="#083D6C" opacity="1.000000" stroke="none"/>
 <path d=" M334.248352,299.761993   C341.311707,300.264008 348.365906,301.169006 355.899506,302.181641   C353.573212,302.881500 350.653229,304.271423 347.987030,303.889587   C343.322296,303.221588 338.813416,301.465271 334.248352,299.761993  z" fill="#0A4C85" opacity="1.000000" stroke="none"/>
 <path d=" M350.659790,221.672546   C344.331665,223.292648 337.631561,224.757416 330.537109,226.167236   C336.103363,221.273132 342.999603,220.535889 350.659790,221.672546  z" fill="#0A4C85" opacity="1.000000" stroke="none"/>
 <path d=" M255.768250,167.185944   C251.596359,169.404556 247.061783,171.620682 242.132629,173.757294   C246.293884,171.513031 250.849716,169.348251 255.768250,167.185944  z" fill="#063868" opacity="1.000000" stroke="none"/>
 <path d=" M32.165581,297.252075   C36.687382,298.622803 41.265636,300.342163 46.023689,302.352386   C41.542999,300.962402 36.882519,299.281555 32.165581,297.252075  z" fill="#063868" opacity="1.000000" stroke="none"/>
 <path d=" M210.229858,352.849792   C202.688904,352.927917 195.243469,352.709839 187.446426,352.290833   C194.838333,352.244446 202.581863,352.399017 210.229858,352.849792  z" fill="#1065A8" opacity="1.000000" stroke="none"/>
 <path d=" M22.195534,288.198761   C25.460373,290.638855 28.679119,293.437836 31.998690,296.550476   C28.782824,294.095276 25.466133,291.326477 22.195534,288.198761  z" fill="#063868" opacity="1.000000" stroke="none"/>
 <path d=" M80.139572,408.696106   C82.562912,405.776703 85.338676,402.890137 88.435165,399.916321   C86.001259,402.795654 83.246620,405.762268 80.139572,408.696106  z" fill="#083D6C" opacity="1.000000" stroke="none"/>
 <path d=" M150.397446,94.273361   C152.414078,98.060532 154.227905,102.131210 156.040604,106.582230   C154.091202,102.827339 152.142929,98.692108 150.397446,94.273361  z" fill="#083D6C" opacity="1.000000" stroke="none"/>
 <path d=" M282.771057,186.201523   C284.668854,183.246399 286.855652,180.135056 289.346375,176.904785   C287.453522,179.872360 285.256805,182.958817 282.771057,186.201523  z" fill="#083D6C" opacity="1.000000" stroke="none"/>
 <path d=" M149.300293,75.921432   C149.696136,79.253365 149.774612,82.810669 149.729553,86.839554   C149.398331,83.589691 149.190613,79.868248 149.300293,75.921432  z" fill="#083D6C" opacity="1.000000" stroke="none"/>
 <path d=" M292.225464,174.854797   C294.284607,172.205887 296.702332,169.601212 299.443329,166.915924   C297.372406,169.523209 294.978241,172.211136 292.225464,174.854797  z" fill="#083D6C" opacity="1.000000" stroke="none"/>
 <path d=" M48.324577,302.795898   C51.458084,302.374939 54.815502,302.310547 58.533241,302.374695   C55.445202,302.719635 51.996849,302.936066 48.324577,302.795898  z" fill="#063868" opacity="1.000000" stroke="none"/>
 <path d=" M237.174515,436.721252   C237.918304,432.629089 239.010513,428.438477 240.358505,423.999756   C239.583847,428.042084 238.553391,432.332428 237.174515,436.721252  z" fill="#05325E" opacity="1.000000" stroke="none"/>
 <path d=" M152.298981,61.844971   C151.915726,65.638184 151.208374,69.590958 150.172913,73.776428   C147.534714,69.471710 150.275925,65.830582 152.298981,61.844971  z" fill="#083D6C" opacity="1.000000" stroke="none"/>
 <path d=" M312.198792,154.798782   C314.260162,152.191498 316.674316,149.600754 319.404419,146.912720   C317.330750,149.482056 314.941132,152.148697 312.198792,154.798782  z" fill="#083D6C" opacity="1.000000" stroke="none"/>
 <path d=" M324.190521,142.811279   C325.930603,140.500977 328.026642,138.252365 330.446167,135.925766   C328.695282,138.189514 326.620850,140.531235 324.190521,142.811279  z" fill="#083D6C" opacity="1.000000" stroke="none"/>
 <path d=" M70.148575,412.606079   C72.831696,411.260986 75.911102,410.070557 79.351486,408.829224   C77.702103,412.512512 74.363190,413.188446 70.148575,412.606079  z" fill="#083D6C" opacity="1.000000" stroke="none"/>
 <path d=" M159.103790,111.252754   C161.067871,112.657738 163.002411,114.419403 165.035492,116.496933   C163.114105,115.078354 161.094193,113.343895 159.103790,111.252754  z" fill="#083D6C" opacity="1.000000" stroke="none"/>
 <path d=" M256.046997,339.699615   C258.217804,338.462616 260.774719,337.389069 263.632172,336.359924   C261.432831,337.557220 258.932983,338.710144 256.046997,339.699615  z" fill="#042D50" opacity="1.000000" stroke="none"/>
 <path d=" M54.375130,400.084534   C55.693287,402.217743 56.871750,404.726257 58.006256,407.598328   C56.720009,405.461212 55.477722,402.960480 54.375130,400.084534  z" fill="#05325E" opacity="1.000000" stroke="none"/>
 <path d=" M387.595215,81.003937   C387.857330,78.515862 388.422302,75.826271 389.282074,72.933556   C389.017273,75.421097 388.457703,78.111771 387.595215,81.003937  z" fill="#05325E" opacity="1.000000" stroke="none"/>
 <path d=" M58.135338,408.352661   C60.650105,409.180450 63.261971,410.323639 65.868698,411.871063   C65.554428,412.538727 65.245316,412.802155 64.936195,413.065613   C62.701607,411.599792 60.467022,410.133942 58.135338,408.352661  z" fill="#05325E" opacity="1.000000" stroke="none"/>
 <path d=" M353.453674,127.039146   C355.099609,128.589050 356.576813,130.474380 357.990265,132.715881   C356.379364,131.172897 354.832184,129.273743 353.453674,127.039146  z" fill="#083D6C" opacity="1.000000" stroke="none"/>
 <path d=" M172.253220,122.183243   C174.456131,122.824959 176.714096,123.809761 179.130035,125.080620   C176.961426,124.419891 174.634842,123.473106 172.253220,122.183243  z" fill="#083D6C" opacity="1.000000" stroke="none"/>
 <path d=" M274.572601,147.013931   C273.456787,148.537018 272.036377,150.172913 270.253235,151.825226   C271.349670,150.270004 272.808838,148.698380 274.572601,147.013931  z" fill="#063868" opacity="1.000000" stroke="none"/>
 <path d=" M390.599670,265.015808   C390.244568,263.413635 390.186096,261.613953 390.257477,259.459076   C390.557007,261.008667 390.726654,262.913483 390.599670,265.015808  z" fill="#05325E" opacity="1.000000" stroke="none"/>
 <path d=" M246.160767,65.755417   C245.112640,64.142204 244.216980,62.278145 243.318512,60.053238   C244.314880,61.629780 245.314041,63.567177 246.160767,65.755417  z" fill="#094071" opacity="1.000000" stroke="none"/>
 <path d=" M85.905838,359.319946   C84.960655,360.813751 83.663887,362.215668 82.039085,363.668091   C82.992119,362.221741 84.273186,360.724884 85.905838,359.319946  z" fill="#063868" opacity="1.000000" stroke="none"/>
 <path d=" M77.860046,367.239502   C76.964569,368.783142 75.714325,370.243011 74.141373,371.777832   C75.047539,370.287109 76.276413,368.721405 77.860046,367.239502  z" fill="#063868" opacity="1.000000" stroke="none"/>
 <path d=" M212.173477,380.371521   C211.532990,378.999359 210.842484,377.254974 210.286621,375.120850   C210.988647,376.487183 211.556061,378.243256 212.173477,380.371521  z" fill="#05325E" opacity="1.000000" stroke="none"/>
 <path d=" M276.789337,322.773254   C276.985626,321.299927 277.540863,319.684875 278.351318,317.909363   C278.120483,319.376434 277.634369,321.004028 276.789337,322.773254  z" fill="#05325E" opacity="1.000000" stroke="none"/>
 <path d=" M368.667816,225.800888   C366.908386,225.458939 365.054688,224.782150 363.025574,223.834229   C364.757965,224.197403 366.665771,224.831726 368.667816,225.800888  z" fill="#0A4C85" opacity="1.000000" stroke="none"/>
 <path d=" M294.138855,273.303711   C295.446289,273.033661 296.879028,273.072021 298.726196,273.227448   C297.515106,273.433685 295.889618,273.522919 294.138855,273.303711  z" fill="#03223F" opacity="1.000000" stroke="none"/>
 <path d=" M320.168182,146.732544   C320.907806,145.463501 321.998474,144.207535 323.396362,142.872070   C322.642120,144.110245 321.580658,145.427933 320.168182,146.732544  z" fill="#083D6C" opacity="1.000000" stroke="none"/>
 <path d=" M300.205444,166.827087   C300.957458,165.516296 302.073792,164.266937 303.505737,162.945862   C302.737457,164.212250 301.653595,165.550369 300.205444,166.827087  z" fill="#083D6C" opacity="1.000000" stroke="none"/>
 <path d=" M308.220337,158.862518   C308.959839,157.530991 310.057648,156.265808 311.469360,154.923157   C310.715057,156.206757 309.646851,157.567810 308.220337,158.862518  z" fill="#083D6C" opacity="1.000000" stroke="none"/>
 <path d=" M314.016479,281.315369   C315.103943,282.291840 316.136230,283.616760 317.191162,285.269165   C316.129639,284.285706 315.045441,282.974792 314.016479,281.315369  z" fill="#0A4C85" opacity="1.000000" stroke="none"/>
 <path d=" M390.694031,61.885765   C389.705353,60.816185 388.816833,59.372555 387.854187,57.611507   C388.784821,58.699966 389.789490,60.105839 390.694031,61.885765  z" fill="#05325E" opacity="1.000000" stroke="none"/>
 <path d=" M329.823669,226.249466   C328.672699,227.230148 327.174866,228.181259 325.312592,229.046173   C326.457672,228.046616 327.967224,227.133255 329.823669,226.249466  z" fill="#0A4C85" opacity="1.000000" stroke="none"/>
 <path d=" M180.240875,126.142654   C181.697708,126.338425 183.230652,126.887489 184.879501,127.722641   C183.435928,127.504456 181.876465,127.000198 180.240875,126.142654  z" fill="#083D6C" opacity="1.000000" stroke="none"/>
 <path d=" M57.453339,388.914642   C57.230812,390.183167 56.653362,391.515625 55.853722,393.067017   C56.120491,391.850159 56.609455,390.414368 57.453339,388.914642  z" fill="#063868" opacity="1.000000" stroke="none"/>
 <path d=" M324.228455,294.221130   C325.471985,294.559357 326.728729,295.244995 328.103546,296.182495   C326.894958,295.812378 325.568298,295.190430 324.228455,294.221130  z" fill="#0A4C85" opacity="1.000000" stroke="none"/>
 <path d=" M73.280960,298.928070   C74.217827,298.138000 75.473991,297.334167 77.035934,296.723999   C76.094559,297.583221 74.847412,298.248779 73.280960,298.928070  z" fill="#063868" opacity="1.000000" stroke="none"/>
 <path d=" M357.310974,222.318024   C356.162445,222.506882 354.886841,222.371231 353.283112,222.020035   C354.364624,221.867493 355.774261,221.930511 357.310974,222.318024  z" fill="#0A4C85" opacity="1.000000" stroke="none"/>
 <path d=" M167.063477,119.384369   C168.296555,119.666725 169.643494,120.273293 171.116913,121.191399   C169.888062,120.904816 168.532684,120.306702 167.063477,119.384369  z" fill="#083D6C" opacity="1.000000" stroke="none"/>
 <path d=" M63.141228,302.756409   C64.145470,301.967743 65.497276,301.313232 67.177536,300.626953   C66.166924,301.360291 64.827858,302.125397 63.141228,302.756409  z" fill="#063868" opacity="1.000000" stroke="none"/>
 <path d=" M299.731476,122.136131   C299.401245,123.094727 298.707611,124.070534 297.727356,125.157257   C298.083160,124.229897 298.725647,123.191628 299.731476,122.136131  z" fill="#063868" opacity="1.000000" stroke="none"/>
 <path d=" M316.660339,287.140228   C317.975891,287.586273 319.042877,288.185974 320.215698,289.084534   C319.018311,288.686890 317.715027,287.990356 316.660339,287.140228  z" fill="#0A4C85" opacity="1.000000" stroke="none"/>
 <path d=" M318.747498,103.118591   C318.326996,104.079643 317.555664,105.034836 316.471130,106.055176   C316.904175,105.117798 317.650421,104.115273 318.747498,103.118591  z" fill="#063868" opacity="1.000000" stroke="none"/>
 <path d=" M78.703690,295.826874   C79.169838,294.982727 79.868988,294.256866 80.778786,293.716858   C80.305191,294.583496 79.620941,295.264343 78.703690,295.826874  z" fill="#063868" opacity="1.000000" stroke="none"/>
 <path d=" M149.458221,89.242203   C150.023529,89.848854 150.407181,90.707359 150.729553,91.926781   C150.204376,91.356483 149.740479,90.425262 149.458221,89.242203  z" fill="#083D6C" opacity="1.000000" stroke="none"/>
 <path d=" M309.005188,273.583130   C309.777954,273.693542 310.683838,274.077209 311.689728,274.781311   C310.905914,274.686584 310.022125,274.271484 309.005188,273.583130  z" fill="#03223F" opacity="1.000000" stroke="none"/>
 <path d=" M240.691681,414.947845   C240.099442,414.313873 239.660019,413.356720 239.303360,412.075226   C239.872253,412.708801 240.358383,413.666748 240.691681,414.947845  z" fill="#05325E" opacity="1.000000" stroke="none"/>
 <path d=" M59.714817,385.119080   C59.506012,386.210266 58.953262,387.360779 58.107899,388.670776   C58.333817,387.613007 58.852345,386.395721 59.714817,385.119080  z" fill="#063868" opacity="1.000000" stroke="none"/>
 <path d=" M280.704834,141.079987   C280.221436,141.989639 279.427673,142.959869 278.277832,143.918716   C278.745972,142.985062 279.570221,142.062805 280.704834,141.079987  z" fill="#063868" opacity="1.000000" stroke="none"/>
 <path d=" M390.781189,255.899902   C390.155518,255.300247 389.660492,254.369690 389.239563,253.110870   C389.846405,253.711380 390.379150,254.640182 390.781189,255.899902  z" fill="#05325E" opacity="1.000000" stroke="none"/>
 <path d=" M383.792847,237.796005   C382.803314,237.313446 381.890778,236.513672 380.973724,235.377716   C381.936096,235.853943 382.902985,236.666367 383.792847,237.796005  z" fill="#0A4C85" opacity="1.000000" stroke="none"/>
 <path d=" M69.091713,300.644897   C69.933563,299.930695 71.105156,299.366180 72.617722,298.885681   C71.779610,299.578033 70.600540,300.186310 69.091713,300.644897  z" fill="#063868" opacity="1.000000" stroke="none"/>
 <path d=" M389.763245,68.866058   C389.602692,68.036148 389.779541,67.196999 390.156616,66.178299   C390.271423,66.951439 390.186035,67.904137 389.763245,68.866058  z" fill="#05325E" opacity="1.000000" stroke="none"/>
 <path d=" M314.897125,241.171539   C314.924774,242.244461 314.586792,243.416351 314.015472,244.770050   C314.031921,243.724762 314.281708,242.497635 314.897125,241.171539  z" fill="#0A4C85" opacity="1.000000" stroke="none"/>
 <path d=" M320.463654,290.050232   C321.343842,290.434570 322.043549,291.147888 322.735291,292.186462   C321.912628,291.800873 321.097870,291.090027 320.463654,290.050232  z" fill="#0A4C85" opacity="1.000000" stroke="none"/>
 <path d=" M91.895828,353.296265   C91.609749,354.108154 90.992996,354.891235 90.070572,355.732025   C90.364990,354.948975 90.965073,354.108185 91.895828,353.296265  z" fill="#063868" opacity="1.000000" stroke="none"/>
 <path d=" M19.279366,284.126038   C19.950317,284.624817 20.498491,285.461456 21.056911,286.611816   C20.430300,286.105042 19.793444,285.284454 19.279366,284.126038  z" fill="#063868" opacity="1.000000" stroke="none"/>
 <path d=" M235.261459,440.830231   C235.248520,439.989563 235.561905,439.040466 236.106873,437.886902   C236.088226,438.695526 235.837997,439.708679 235.261459,440.830231  z" fill="#05325E" opacity="1.000000" stroke="none"/>
 <path d=" M156.016510,107.301987   C156.666245,107.767441 157.289291,108.571762 157.922058,109.716812   C157.284470,109.251984 156.637131,108.446411 156.016510,107.301987  z" fill="#083D6C" opacity="1.000000" stroke="none"/>
 <path d=" M319.703217,234.123016   C319.612640,234.966782 319.193451,235.891037 318.488159,236.956299   C318.592896,236.132706 318.983734,235.168091 319.703217,234.123016  z" fill="#0A4C85" opacity="1.000000" stroke="none"/>
 <path d=" M386.919312,86.833237   C386.679962,86.069221 386.746338,85.194191 387.019958,84.130524   C387.227203,83.941879 387.172333,84.015099 387.282166,84.159615   C387.577301,84.540382 387.769928,84.770477 387.969910,84.994431   C387.721619,85.570366 387.473328,86.146294 386.919312,86.833237  z" fill="#063868" opacity="1.000000" stroke="none"/>
 <path d=" M320.654144,100.206436   C320.884460,100.716522 320.875885,101.434738 320.629639,102.200981   C320.399750,101.637527 320.407501,101.026039 320.654144,100.206436  z" fill="#063868" opacity="1.000000" stroke="none"/>
 <path d=" M313.459656,108.818634   C313.126740,109.524445 312.465515,110.283104 311.492615,111.092422   C311.831116,110.385872 312.481232,109.628677 313.459656,108.818634  z" fill="#063868" opacity="1.000000" stroke="none"/>
 <path d=" M290.112183,176.701294   C290.266571,176.092239 290.752228,175.529099 291.526062,174.914795   C291.357361,175.491470 290.900391,176.119324 290.112183,176.701294  z" fill="#083D6C" opacity="1.000000" stroke="none"/>
 <path d=" M122.263176,195.995148   C122.364410,196.613602 122.152847,197.363205 121.724609,198.324432   C121.655418,197.732803 121.802902,196.929535 122.263176,195.995148  z" fill="#061B34" opacity="1.000000" stroke="none"/>
 <path d=" M373.675934,228.863525   C372.824127,228.700882 371.965027,228.224258 370.999878,227.456497   C371.818787,227.626755 372.743683,228.088135 373.675934,228.863525  z" fill="#0A4C85" opacity="1.000000" stroke="none"/>
 <path d=" M101.819984,343.210358   C101.747673,343.834473 101.339127,344.449219 100.659470,345.157898   C100.753494,344.568237 101.118622,343.884583 101.819984,343.210358  z" fill="#063868" opacity="1.000000" stroke="none"/>
 <path d=" M156.675217,338.809631   C156.196198,339.067841 155.425949,339.187775 154.281662,339.417664   C153.775848,339.634369 153.644073,339.741089 153.256897,339.834106   C154.128998,339.437439 155.256485,339.054382 156.675217,338.809631  z" fill="#0B76CC" opacity="1.000000" stroke="none"/>
 <path d=" M360.901520,222.908997   C360.385376,223.108093 359.806335,223.045242 359.078857,222.801941   C359.566467,222.630005 360.202545,222.638519 360.901520,222.908997  z" fill="#0A4C85" opacity="1.000000" stroke="none"/>
 <path d=" M239.563126,409.767365   C239.069168,409.447479 238.719208,408.914703 238.386337,408.056244   C238.837982,408.338501 239.272552,408.946503 239.563126,409.767365  z" fill="#05325E" opacity="1.000000" stroke="none"/>
 <path d=" M302.749023,119.114799   C302.648315,119.729614 302.211761,120.354980 301.490295,121.065445   C301.608002,120.475471 302.010590,119.800415 302.749023,119.114799  z" fill="#063868" opacity="1.000000" stroke="none"/>
 <path d=" M93.866455,351.257629   C93.762367,351.897095 93.319199,352.482300 92.601006,353.145050   C92.726440,352.549530 93.126915,351.876465 93.866455,351.257629  z" fill="#063868" opacity="1.000000" stroke="none"/>
 <path d=" M264.485840,157.156464   C264.718384,157.645004 264.690491,158.291550 264.409485,159.026794   C264.179352,158.515152 264.202393,157.914795 264.485840,157.156464  z" fill="#063868" opacity="1.000000" stroke="none"/>
 <path d=" M69.856110,375.229797   C69.789330,375.895935 69.371613,376.496368 68.685081,377.183899   C68.779243,376.568695 69.142220,375.866394 69.856110,375.229797  z" fill="#063868" opacity="1.000000" stroke="none"/>
 <path d=" M350.085999,124.277420   C350.731262,124.343071 351.370880,124.756905 352.084534,125.461075   C351.465851,125.376144 350.773071,125.000870 350.085999,124.277420  z" fill="#083D6C" opacity="1.000000" stroke="none"/>
 <path d=" M293.488037,270.973999   C293.804047,271.343018 293.898285,271.808350 293.998566,272.630066   C293.758484,272.347748 293.512360,271.709076 293.488037,270.973999  z" fill="#03223F" opacity="1.000000" stroke="none"/>
 <path d=" M61.896099,383.262329   C61.720455,383.944946 61.203445,384.515869 60.376343,385.071686   C60.562408,384.421265 61.058567,383.785950 61.896099,383.262329  z" fill="#063868" opacity="1.000000" stroke="none"/>
 <path d=" M305.827423,273.600647   C306.074127,273.263489 306.287750,273.219543 306.821350,273.243591   C307.050720,274.005920 306.960022,274.700287 306.709839,276.615936   C306.139130,274.919037 305.966736,274.406433 305.827423,273.600647  z" fill="#03223F" opacity="1.000000" stroke="none"/>
 <path d=" M329.053436,298.336792   C329.551056,298.242981 330.167084,298.426666 330.822998,298.868774   C330.299225,298.956238 329.735565,298.785278 329.053436,298.336792  z" fill="#0A4C85" opacity="1.000000" stroke="none"/>
 <path d=" M388.658234,274.817352   C388.671661,274.490295 389.044189,274.200256 389.633698,273.894592   C389.572906,274.204102 389.295135,274.529236 388.658234,274.817352  z" fill="#05325E" opacity="1.000000" stroke="none"/>
 <path d=" M186.033112,351.626221   C185.991486,352.110504 185.781708,352.377716 185.346222,352.765320   C185.368652,352.393494 185.616806,351.901306 186.033112,351.626221  z" fill="#1065A8" opacity="1.000000" stroke="none"/>
 <path d=" M183.846222,380.249115   C183.602539,380.526123 183.052963,380.642609 182.245285,380.873260   C182.504913,380.687775 183.022629,380.388184 183.846222,380.249115  z" fill="#05325E" opacity="1.000000" stroke="none"/>
 <path d=" M386.790405,55.879169   C386.586151,56.099476 386.303925,56.002472 385.916656,55.623528   C386.120483,55.337841 386.420746,55.411266 386.790405,55.879169  z" fill="#05325E" opacity="1.000000" stroke="none"/>
 <path d=" M348.146576,122.180229   C348.436981,122.050293 348.670624,122.255615 348.936249,122.744888   C348.733368,122.791771 348.440582,122.620659 348.146576,122.180229  z" fill="#083D6C" opacity="1.000000" stroke="none"/>
 <path d=" M238.639099,405.973389   C238.394272,406.017151 238.259293,405.872803 237.991913,405.463562   C238.156006,405.394165 238.452499,405.589691 238.639099,405.973389  z" fill="#05325E" opacity="1.000000" stroke="none"/>
 <path d=" M54.892921,394.112915   C55.009808,394.310333 54.911053,394.496735 54.596142,394.914459   C54.479084,394.797821 54.578182,394.449860 54.892921,394.112915  z" fill="#05325E" opacity="1.000000" stroke="none"/>
 <path d=" M166.133835,118.183952   C166.418594,118.093018 166.638779,118.320000 166.877045,118.826233   C166.672302,118.853386 166.397018,118.652184 166.133835,118.183952  z" fill="#083D6C" opacity="1.000000" stroke="none"/>
 <path d=" M287.841431,134.170837   C287.970337,134.484222 287.750153,134.711761 287.210083,134.917908   C287.176331,134.708588 287.377014,134.438095 287.841431,134.170837  z" fill="#063868" opacity="1.000000" stroke="none"/>
 <path d=" M158.028778,110.310356   C158.268570,110.113655 158.544678,110.263924 158.916824,110.698807   C158.750061,110.777130 158.434158,110.668434 158.028778,110.310356  z" fill="#083D6C" opacity="1.000000" stroke="none"/>
 <path d=" M65.275543,412.996735   C65.245316,412.802155 65.554428,412.538727 66.131561,412.118988   C66.399567,411.962708 66.414917,412.309631 66.319717,412.454468   C66.021301,412.708832 65.818092,412.818329 65.275543,412.996735  z" fill="#083D6C" opacity="1.000000" stroke="none"/>
 <path d=" M387.942169,84.732613   C387.769928,84.770477 387.577301,84.540382 387.244690,84.133400   C387.369690,84.132050 387.642059,84.301422 387.942169,84.732613  z" fill="#05325E" opacity="1.000000" stroke="none"/>
 <path d=" M389.664551,70.470444   C389.623749,70.425720 389.686096,70.478104 389.651489,70.501328   C389.616852,70.524559 389.705353,70.515175 389.664551,70.470444  z" fill="#05325E" opacity="1.000000" stroke="none"/>
 <path d=" M387.113586,279.771851   C386.901031,279.496033 387.040619,279.246124 387.454712,278.930786   C387.552032,279.126282 387.464172,279.437042 387.113586,279.771851  z" fill="#05325E" opacity="1.000000" stroke="none"/>
 <path d=" M293.545441,254.050293   C293.694000,254.114044 293.734222,254.306412 293.728729,254.789993   C293.601044,254.780457 293.519073,254.479691 293.545441,254.050293  z" fill="#03223F" opacity="1.000000" stroke="none"/>
 <path d=" M389.462555,250.983673   C389.204437,250.999237 389.090118,250.861938 388.897583,250.468597   C389.081696,250.418625 389.344025,250.624710 389.462555,250.983673  z" fill="#05325E" opacity="1.000000" stroke="none"/>
 <path d=" M388.504456,247.986633   C388.256256,248.008408 388.136871,247.867050 387.925720,247.464020   C388.100372,247.409409 388.366852,247.616455 388.504456,247.986633  z" fill="#05325E" opacity="1.000000" stroke="none"/>
 <path d=" M312.902893,246.300140   C313.116119,246.451904 313.078461,246.639694 312.853333,246.907135   C312.519196,246.789795 312.514557,246.572922 312.902893,246.300140  z" fill="#0A4C85" opacity="1.000000" stroke="none"/>
 <path d=" M330.959473,299.379944   C331.141785,299.263000 331.401520,299.428406 331.836945,299.748596   C331.704193,299.796631 331.378967,299.716278 330.959473,299.379944  z" fill="#0A4C85" opacity="1.000000" stroke="none"/>
 <path d=" M387.369659,246.012878   C387.017822,246.091461 386.862946,245.881104 386.816895,245.398224   C387.214661,245.211838 387.428314,245.411255 387.369659,246.012878  z" fill="#05325E" opacity="1.000000" stroke="none"/>
 <path d=" M384.651398,239.823761   C384.341400,239.977600 384.159302,239.831863 383.963867,239.457367   C384.278717,239.102448 384.554932,239.200974 384.651398,239.823761  z" fill="#0A4C85" opacity="1.000000" stroke="none"/>
 <path d=" M380.916718,234.760086   C380.658966,234.895035 380.415039,234.702805 380.101990,234.243683   C380.281006,234.193649 380.580231,234.345673 380.916718,234.760086  z" fill="#0A4C85" opacity="1.000000" stroke="none"/>
 <path d=" M60.493549,302.651306   C60.574425,302.585968 60.516903,302.640472 60.489605,302.611206   C60.462307,302.581909 60.565609,302.801758 60.565609,302.801758   C60.565609,302.801758 60.412674,302.716675 60.493549,302.651306  z" fill="#063868" opacity="1.000000" stroke="none"/>
 <path d=" M370.819519,226.837463   C370.593658,227.030426 370.370697,226.920654 370.065765,226.597000   C370.285583,226.201874 370.565125,226.252426 370.819519,226.837463  z" fill="#0A4C85" opacity="1.000000" stroke="none"/>
 <path d=" M285.706635,136.020233   C285.845062,136.268402 285.655243,136.526169 285.177795,136.846268   C285.128479,136.671326 285.291199,136.378403 285.706635,136.020233  z" fill="#063868" opacity="1.000000" stroke="none"/>
 <path d=" M185.354950,159.917297   C185.359619,159.785599 185.591843,159.752869 185.702911,159.789322   C185.813965,159.825775 185.653915,160.154388 185.653915,160.154388   C185.653915,160.154388 185.350281,160.048996 185.354950,159.917297  z" fill="#042D50" opacity="1.000000" stroke="none"/>
 <path d=" M210.047379,159.012054   C210.081802,159.014496 210.389633,159.227829 210.389633,159.227829   C210.389633,159.227829 210.023422,159.304871 210.019073,159.191742   C210.014740,159.078598 210.012955,159.009598 210.047379,159.012054  z" fill="#042D50" opacity="1.000000" stroke="none"/>
 <path d=" M268.618500,152.952240   C268.706757,153.160461 268.506195,153.403854 268.059906,153.737793   C268.031769,153.585739 268.203583,153.305435 268.618500,152.952240  z" fill="#063868" opacity="1.000000" stroke="none"/>
 <path d=" M269.615997,151.949371   C269.704926,152.154846 269.506958,152.396255 269.069763,152.733261   C269.041565,152.584457 269.207794,152.303284 269.615997,151.949371  z" fill="#063868" opacity="1.000000" stroke="none"/>
 <path d=" M281.768311,140.081940   C281.929840,140.364655 281.739990,140.620697 281.241150,140.911835   C281.181915,140.715088 281.343536,140.417862 281.768311,140.081940  z" fill="#063868" opacity="1.000000" stroke="none"/>
 <path d=" M282.726318,139.051575   C282.899261,139.310776 282.728394,139.580963 282.256531,139.912842   C282.186523,139.726593 282.328827,139.422607 282.726318,139.051575  z" fill="#063868" opacity="1.000000" stroke="none"/>
 <path d=" M283.711365,138.031311   C283.853577,138.281036 283.666382,138.539200 283.193909,138.862335   C283.141602,138.685989 283.299377,138.390121 283.711365,138.031311  z" fill="#063868" opacity="1.000000" stroke="none"/>
 <path d=" M284.710144,137.027954   C284.847717,137.278000 284.657379,137.534271 284.180115,137.850861   C284.130585,137.674088 284.293610,137.381744 284.710144,137.027954  z" fill="#063868" opacity="1.000000" stroke="none"/>
 <path d=" M235.020813,204.804169   C242.144302,204.532135 247.226120,210.862000 248.159027,216.120987   C251.936401,237.414810 248.902100,258.849579 249.730576,280.199432   C249.946976,285.776398 250.023682,291.756775 248.230530,296.874176   C247.030060,300.300171 242.416290,302.530182 238.787735,305.636658   C237.104904,306.210693 235.964218,306.443451 234.823532,306.676208   C211.525330,306.718964 188.227142,306.761719 164.222778,306.834045   C163.350906,306.886780 163.185226,306.909973 163.019531,306.933136   C153.024155,303.592010 150.089951,296.133575 150.209915,286.274384   C150.475418,264.455170 150.246918,242.630402 150.395950,220.809113   C150.439804,214.387878 153.367752,209.342697 159.693649,205.931580   C160.489182,205.429657 160.709290,205.142242 160.929398,204.854813   C161.725510,204.431412 162.521622,204.007996 163.858215,203.777496   C165.974716,203.751312 167.550766,203.532242 169.126801,203.313171   C169.514481,203.295013 169.902161,203.276871 170.585510,203.477432   C170.881180,203.696136 171.037354,204.047775 171.260315,204.416443   C192.662460,204.791458 213.841644,204.797821 235.020813,204.804169  z" fill="#000101" opacity="1.000000" stroke="none"/>
 <path d=" M120.942093,315.165344   C120.841011,294.913635 120.922493,274.813416 120.972916,254.713104   C121.017090,237.100815 121.026382,219.488419 121.003769,201.404846   C121.282867,202.626923 121.880508,204.318222 121.893036,206.013855   C121.999207,220.381226 121.998703,234.749420 122.045929,249.991913   C122.089012,252.226791 122.116371,253.587112 122.143723,254.947418   C122.099045,256.365509 122.054367,257.783630 122.031418,259.940918   C122.080330,261.105042 122.107529,261.529968 122.134735,261.954895   C122.042717,279.459656 121.950897,296.964386 121.855713,314.469116   C121.854828,314.632568 121.866676,314.859039 121.771812,314.945496   C121.589905,315.111298 121.335487,315.197510 120.942093,315.165344  z" fill="#061B34" opacity="1.000000" stroke="none"/>
 <path d=" M235.018677,204.640381   C213.841644,204.797821 192.662460,204.791458 171.726074,204.392853   C192.984283,204.050095 213.999710,204.099548 235.015152,204.149017   C235.015152,204.149002 235.016541,204.476608 235.018677,204.640381  z" fill="#126FBD" opacity="1.000000" stroke="none"/>
 <path d=" M235.162598,203.992218   C213.999710,204.099548 192.984283,204.050095 171.503098,204.024200   C171.037354,204.047775 170.881180,203.696136 170.875702,203.503830   C192.207565,203.270493 213.544922,203.228226 234.882278,203.215195   C235.024734,203.215103 235.167450,203.619751 235.162598,203.992218  z" fill="#03223F" opacity="1.000000" stroke="none"/>
 <path d=" M277.716187,225.455627   C277.901642,232.054703 277.928986,239.025772 277.917725,246.457870   C277.772095,239.888474 277.665100,232.858032 277.716187,225.455627  z" fill="#0B76CC" opacity="1.000000" stroke="none"/>
 <path d=" M277.731201,258.441650   C277.915253,262.717041 277.937531,267.361206 277.922546,272.464142   C277.779999,268.218750 277.674744,263.514557 277.731201,258.441650  z" fill="#0B76CC" opacity="1.000000" stroke="none"/>
 <path d=" M277.720520,275.448334   C277.902435,279.059052 277.927582,283.035431 277.920227,287.467590   C277.779724,283.886902 277.671783,279.850433 277.720520,275.448334  z" fill="#0B76CC" opacity="1.000000" stroke="none"/>
 <path d=" M252.627090,338.670227   C249.322067,338.872131 245.644196,338.926727 241.510925,338.941711   C244.788437,338.775726 248.521347,338.649292 252.627090,338.670227  z" fill="#0B76CC" opacity="1.000000" stroke="none"/>
 <path d=" M277.727478,302.433411   C277.900818,305.387665 277.915039,308.698853 277.886200,312.458740   C277.751587,309.535126 277.659973,306.162720 277.727478,302.433411  z" fill="#0B76CC" opacity="1.000000" stroke="none"/>
 <path d=" M168.763214,203.214447   C167.550766,203.532242 165.974716,203.751312 164.185272,203.686874   C165.447784,203.307480 166.923691,203.211609 168.763214,203.214447  z" fill="#03223F" opacity="1.000000" stroke="none"/>
 <path d=" M235.092255,306.862183   C235.964218,306.443451 237.104904,306.210693 238.607117,305.937012   C237.766083,306.280121 236.563522,306.664154 235.092255,306.862183  z" fill="#0B76CC" opacity="1.000000" stroke="none"/>
 <path d=" M122.282784,254.657227   C122.116371,253.587112 122.089012,252.226791 122.108070,250.460419   C122.243607,251.491913 122.332726,252.929489 122.282784,254.657227  z" fill="#0B76CC" opacity="1.000000" stroke="none"/>
 <path d=" M278.513184,197.277588   C278.769531,197.610580 278.850037,198.027451 278.959900,198.762695   C278.989197,199.081070 278.552734,199.059631 278.334930,199.076813   C278.190521,198.516495 278.263916,197.938980 278.513184,197.277588  z" fill="#0B76CC" opacity="1.000000" stroke="none"/>
 <path d=" M277.764618,292.296448   C277.907104,292.785645 277.929932,293.500854 277.919891,294.572662   C277.806335,294.126984 277.725647,293.324707 277.764618,292.296448  z" fill="#0B76CC" opacity="1.000000" stroke="none"/>
 <path d=" M197.766098,338.802185   C197.526703,338.910492 197.105530,338.929901 196.369415,338.917084   C196.564407,338.827637 197.074371,338.770477 197.766098,338.802185  z" fill="#0B76CC" opacity="1.000000" stroke="none"/>
 <path d=" M122.217209,261.769897   C122.107529,261.529968 122.080330,261.105042 122.094505,260.362762   C122.190491,260.558563 122.245094,261.071716 122.217209,261.769897  z" fill="#0B76CC" opacity="1.000000" stroke="none"/>
 <path d=" M160.685898,204.947693   C160.709290,205.142242 160.489182,205.429657 159.988434,205.746002   C159.952652,205.530121 160.197525,205.285339 160.685898,204.947693  z" fill="#03223F" opacity="1.000000" stroke="none"/>
 <path d=" M163.142395,306.953949   C163.185226,306.909973 163.350906,306.886780 163.761230,306.919617   C164.005875,306.975586 163.634598,307.004639 163.634598,307.004639   C163.634598,307.004639 163.265244,306.974762 163.142395,306.953949  z" fill="#0B76CC" opacity="1.000000" stroke="none"/>
 <path d=" M164.839783,338.854065   C164.950912,338.880981 164.501877,338.922760 164.277893,338.896912   C164.276810,338.802582 164.501724,338.787933 164.839783,338.854065  z" fill="#0B76CC" opacity="1.000000" stroke="none"/>
 <path d=" M277.491760,194.500809   C277.511047,194.493744 277.472473,194.507874 277.491760,194.500809  z" fill="#0B76CC" opacity="1.000000" stroke="none"/>
 <path d=" M182.844666,95.263466   C173.579269,85.754570 174.311523,71.416496 184.549850,62.856964   C191.869415,56.737602 207.071823,57.794186 213.074539,65.360863   C214.967896,67.747528 217.545914,69.723320 218.940002,72.349327   C223.376190,80.705589 220.381836,90.398727 212.319717,95.540520   C210.608368,96.631973 209.214569,98.221313 207.020920,99.450470   C199.863617,98.955322 193.359848,98.590973 186.856094,98.226624   C186.856094,98.226624 186.856232,98.171379 186.763199,97.798813   C185.395004,96.705322 184.119827,95.984398 182.844666,95.263466  z" fill="#000000" opacity="1.000000" stroke="none"/>
 <path d=" M187.012939,98.539055   C193.359848,98.590973 199.863617,98.955322 206.688416,99.515976   C201.349442,103.277847 192.600540,102.898254 187.012939,98.539055  z" fill="#094071" opacity="1.000000" stroke="none"/>
 <path d=" M152.293365,91.502899   C152.886566,90.022842 153.533081,88.873222 154.179596,87.723602   C154.947357,88.421417 156.351639,89.124466 156.345963,89.815941   C156.335251,91.121246 155.513229,92.419891 155.028397,93.721313   C154.134491,93.091988 153.240601,92.462662 152.293365,91.502899  z" fill="#086AB9" opacity="1.000000" stroke="none"/>
 <path d=" M182.949692,95.569702   C184.119827,95.984398 185.395004,96.705322 186.736572,97.791496   C185.553558,97.396469 184.304138,96.636200 182.949692,95.569702  z" fill="#094071" opacity="1.000000" stroke="none"/>
 <path d=" M186.020752,431.970062   C185.246933,431.233124 184.473114,430.496216 183.664886,429.223724   C183.510574,428.296997 183.252533,428.152435 182.856323,428.254517   C182.757767,428.081268 182.659225,427.908051 182.594849,427.211670   C182.549683,426.300659 182.312134,426.112366 181.916397,426.123627   C181.781448,425.713348 181.646515,425.303040 181.660675,424.128723   C182.005249,419.819794 182.200714,416.274872 182.396179,412.729950   C186.740677,406.641510 191.742813,401.455933 200.069473,402.653351   C203.199280,403.103455 206.167801,404.675232 209.594284,406.265869   C211.057190,407.768616 212.135666,408.741089 213.214142,409.713562   C213.214142,409.713562 213.415390,409.679413 213.402527,410.062317   C214.476181,413.064362 215.562668,415.683502 216.649170,418.302673   C216.624115,419.829590 216.599060,421.356476 216.254547,423.415222   C214.710175,426.687836 213.485260,429.428619 212.260345,432.169403   C211.435089,432.895599 210.609848,433.621765 209.226196,434.335510   C208.546356,434.602478 208.424942,434.881805 208.303528,435.161163   C208.303513,435.161163 208.320160,435.398560 207.977905,435.359924   C206.977524,435.744843 206.319382,436.168396 205.661224,436.591919   C200.948578,438.445099 196.266174,438.265625 191.188477,435.986572   C190.465408,435.559570 190.162994,435.528809 189.860565,435.498077   C189.088074,434.786102 188.315598,434.074097 187.236252,432.906738   C186.626526,432.290894 186.323639,432.130463 186.020752,431.970062  z" fill="#000101" opacity="1.000000" stroke="none"/>
 <path d=" M182.094391,412.910278   C182.200714,416.274872 182.005249,419.819794 181.644135,423.801575   C178.787949,420.443695 179.715408,416.750977 182.094391,412.910278  z" fill="#083D6C" opacity="1.000000" stroke="none"/>
 <path d=" M216.726715,417.910828   C215.562668,415.683502 214.476181,413.064362 213.503769,410.075226   C214.679993,412.309845 215.742126,414.914429 216.726715,417.910828  z" fill="#083D6C" opacity="1.000000" stroke="none"/>
 <path d=" M212.577057,432.051392   C213.485260,429.428619 214.710175,426.687836 216.248169,423.796753   C215.338745,426.408752 214.116241,429.171051 212.577057,432.051392  z" fill="#083D6C" opacity="1.000000" stroke="none"/>
 <path d=" M213.185730,409.383575   C212.135666,408.741089 211.057190,407.768616 209.919342,406.465851   C210.959076,407.108215 212.058197,408.080902 213.185730,409.383575  z" fill="#083D6C" opacity="1.000000" stroke="none"/>
 <path d=" M205.952057,436.665497   C206.319382,436.168396 206.977524,435.744843 207.950439,435.475708   C207.591110,435.999756 206.917007,436.369415 205.952057,436.665497  z" fill="#083D6C" opacity="1.000000" stroke="none"/>
 <path d=" M181.950668,426.319763   C182.312134,426.112366 182.549683,426.300659 182.538391,426.918091   C182.216736,426.993286 182.062454,426.782684 181.950668,426.319763  z" fill="#083D6C" opacity="1.000000" stroke="none"/>
 <path d=" M182.892029,428.443115   C183.252533,428.152435 183.510574,428.296997 183.549683,428.920502   C183.215256,429.055176 183.034866,428.881470 182.892029,428.443115  z" fill="#083D6C" opacity="1.000000" stroke="none"/>
 <path d=" M186.157562,432.167145   C186.323639,432.130463 186.626526,432.290894 186.977753,432.716003   C186.750320,432.812988 186.506409,432.607513 186.157562,432.167145  z" fill="#083D6C" opacity="1.000000" stroke="none"/>
 <path d=" M208.485596,435.121521   C208.424942,434.881805 208.546356,434.602478 208.907501,434.427673   C209.065567,434.783630 208.905716,434.966858 208.485596,435.121521  z" fill="#083D6C" opacity="1.000000" stroke="none"/>
 <path d=" M189.995972,435.646973   C190.162994,435.528809 190.465408,435.559570 190.822113,435.836945   C190.603867,436.050323 190.355530,435.954437 189.995972,435.646973  z" fill="#083D6C" opacity="1.000000" stroke="none"/>
 <path d=" M38.697395,268.558838   C34.486637,254.418137 41.600086,248.292740 52.830952,244.276871   C56.841377,242.842850 68.040718,249.048096 70.021423,255.165146   C72.785751,263.702332 70.320419,272.252747 63.260784,277.165161   C58.536396,280.452606 48.886158,279.547302 43.067352,274.876221   C41.212112,273.386932 40.103382,270.967682 38.697395,268.558838  z" fill="#000101" opacity="1.000000" stroke="none"/>
 <path d=" M354.968079,278.542877   C345.242889,280.976746 338.764984,276.483704 334.174103,269.072601   C329.531738,261.578491 333.818207,246.439194 346.026154,245.008621   C357.035034,243.718552 363.201996,249.046097 365.600861,256.263763   C368.718658,265.644379 364.498230,273.938232 354.968079,278.542877  z" fill="#000000" opacity="1.000000" stroke="none"/>
 <path d=" M390.127930,268.929260   C390.061951,269.147583 389.997620,269.416412 389.890106,269.666656   C389.867218,269.719910 389.686920,269.705536 389.579132,269.722321   C389.665588,269.508087 389.752014,269.293854 390.012482,268.996399   C390.186493,268.913147 390.114136,268.973145 390.127930,268.929260  z" fill="#05325E" opacity="1.000000" stroke="none"/>
</svg>
