<?xml version="1.0" encoding="utf-8"?>
<svg enable-background="new 0 0 505 306" id="Layer_1" version="1.1" viewBox="0 0 505 306" width="100%" x="0px" xml:space="preserve" xmlns="http://www.w3.org/2000/svg" xmlns:xlink="http://www.w3.org/1999/xlink" y="0px">
 <path d=" M367.000000,307.000000   C244.704224,307.000000 122.908432,307.000000 1.056326,307.000000   C1.056326,205.069016 1.056326,103.137993 1.056326,1.103483   C169.212402,1.103483 337.424896,1.103483 505.818695,1.103483   C505.818695,102.999733 505.818695,204.999847 505.818695,307.000000   C459.804718,307.000000 413.652374,307.000000 367.000000,307.000000  M377.429413,222.179352   C377.429413,222.179352 377.908081,222.104965 378.852753,222.200455   C385.898499,222.191483 392.944214,222.182526 400.117188,222.676117   C400.646393,222.585526 401.569031,222.624023 401.647308,222.385468   C403.678131,216.196518 405.621185,209.978760 407.632812,202.991302   C415.032898,182.071777 422.378235,161.132446 429.920746,140.264389   C430.647858,138.252747 432.599182,136.683578 434.240204,135.449249   C435.018005,136.026138 435.795807,136.603012 436.677368,138.089188   C436.708618,140.253342 436.760681,142.417419 436.768005,144.581665   C436.858704,171.387955 436.942871,198.194244 436.866486,225.659225   C436.913086,226.105972 436.959686,226.552719 436.840485,227.876205   C436.894745,230.250916 436.949005,232.625641 436.837311,235.741470   C436.895081,236.494171 436.952820,237.246887 436.845306,238.740692   C436.896820,239.493790 436.948303,240.246902 436.822571,241.860580   C436.822571,243.796555 436.822571,245.732529 436.822571,248.360626   C446.494873,248.360626 455.667786,248.360626 465.064819,248.826950   C469.293915,248.806168 469.374115,248.666473 467.301880,244.067581   C467.204895,243.045029 467.107910,242.022461 467.168945,240.339233   C467.114471,239.892838 467.059998,239.446457 467.182861,238.207184   C467.231445,236.855011 467.280029,235.502823 467.678680,234.054825   C467.562225,233.652191 467.445770,233.249557 467.279175,231.992020   C467.190674,229.994583 467.102173,227.997147 467.189484,225.139908   C467.233490,222.809860 467.277527,220.479813 467.673737,218.055481   C467.557587,217.652222 467.441406,217.248978 467.271545,215.935959   C467.290833,211.341248 467.310120,206.746552 467.688782,202.061295   C467.571777,201.655029 467.454773,201.248764 467.289734,200.279495   C467.305664,199.903488 467.321594,199.527481 467.896881,198.875916   C467.708496,197.534317 467.520111,196.192703 467.272614,193.934540   C467.296387,181.342224 467.320129,168.749893 467.702026,156.064865   C467.582001,155.656647 467.461975,155.248413 467.285522,154.005585   C467.300049,152.054230 467.314606,150.102859 467.684052,148.058945   C467.567993,147.653748 467.451935,147.248535 467.287048,146.008118   C467.303619,144.056351 467.320190,142.104584 467.692474,140.060715   C467.574738,139.654861 467.456970,139.249008 467.290527,137.927002   C467.273315,116.227036 467.303864,94.526741 467.151123,72.827736   C467.138458,71.031418 465.884979,69.243835 464.806519,66.839478   C461.825897,67.129494 458.845245,67.419518 454.982300,67.752602   C452.035583,67.730965 449.088898,67.709320 445.963623,67.228203   C445.260651,67.379562 444.557678,67.530922 442.937622,67.737785   C436.846710,67.757950 430.755829,67.778114 424.053711,67.892769   C423.903595,68.908325 423.753479,69.923874 423.749725,71.577980   C423.703369,72.010376 423.657013,72.442772 423.269257,72.910316   C423.037994,72.990639 422.876770,73.144363 422.744446,74.149483   C422.359070,75.377441 421.973694,76.605392 420.976135,78.141884   C419.843079,81.908730 418.710052,85.675575 417.377747,89.791267   C417.377747,89.791267 417.043396,90.013954 416.384155,90.326988   C415.475800,93.711975 414.567444,97.096962 413.341278,101.159126   C412.900452,102.004173 412.344421,102.809364 412.036194,103.700287   C407.967743,115.459183 403.934174,127.230141 399.384369,139.508987   C396.539398,147.948730 393.694397,156.388458 390.322052,165.196472   C389.529999,164.721222 388.290955,164.424545 388.018188,163.741837   C386.210541,159.217102 384.555115,154.628723 382.951630,150.025711   C375.288483,128.028091 367.657745,106.019188 360.400208,83.846039   C360.228546,83.609344 360.056885,83.372643 359.642181,82.706123   C359.642181,82.706123 359.455536,82.248955 359.696075,81.495056   C357.846008,76.944168 355.995911,72.393280 353.536316,67.614548   C353.112640,67.537613 352.688965,67.460678 352.189606,67.419868   C352.189606,67.419868 352.228455,67.486320 352.749084,66.863609   C352.576141,66.610535 352.403961,66.136475 352.230164,66.135880   C339.305939,66.091583 326.381561,66.079590 313.457428,66.124832   C313.267700,66.125496 313.080627,66.875877 312.832825,67.584473   C312.832825,67.584473 312.924896,67.884460 312.860718,68.460510   C312.923065,68.643372 312.985443,68.826233 312.873474,69.835251   C312.948944,71.234077 313.024414,72.632896 312.785614,74.736015   C312.896606,76.833138 313.007599,78.930252 312.886505,81.931808   C312.864838,127.315498 312.824677,172.699188 312.838440,218.082870   C312.840942,226.380814 313.063263,234.678711 312.837341,243.572632   C312.948486,244.675308 313.059631,245.777969 313.496857,247.576584   C314.927582,247.850769 316.358276,248.124954 317.855804,248.821320   C318.303223,248.679138 318.750610,248.536957 320.098206,248.251053   C327.385193,248.336395 334.672150,248.421722 342.156433,248.884125   C342.419006,248.567566 342.681610,248.250992 343.082092,247.228912   C343.102112,210.846802 343.122131,174.464706 343.721436,137.988708   C344.446045,137.353516 345.170654,136.718307 346.304626,136.669388   C347.548248,139.103149 348.791870,141.536896 350.017975,144.732635   C354.977051,158.823639 359.936127,172.914627 365.217834,187.683426   C368.845825,198.429520 372.473846,209.175613 375.967224,220.468292   C375.988464,220.654724 376.009705,220.841156 376.102814,221.542389   C376.397217,221.689713 376.691589,221.837021 377.429413,222.179352  M37.241467,232.414902   C37.842262,232.927673 38.443062,233.440430 39.311924,234.570206   C48.604832,245.785126 60.787453,251.244705 75.399658,253.217575   C76.344627,253.349533 77.289589,253.481476 78.820122,253.567825   C79.795738,253.500504 80.771355,253.433182 82.181343,254.002502   C85.753853,253.809158 89.326355,253.615814 93.671730,253.471268   C94.702995,253.520081 95.734261,253.568893 97.531380,253.878616   C98.649269,253.383209 99.767166,252.887787 101.626953,252.426727   C102.361404,252.531616 103.095848,252.636505 104.531700,252.974915   C104.957321,252.533218 105.382942,252.091537 106.424149,251.444275   C107.433861,251.422943 108.443581,251.401611 109.532814,251.362091   C109.532814,251.362091 109.473480,251.413406 110.111176,250.862152   C119.685555,247.100006 129.137497,243.137711 136.616791,234.701843   C136.984512,233.735474 137.352234,232.769104 137.766846,231.796661   C137.766846,231.796661 137.808640,231.774567 138.489120,231.706161   C138.791061,230.706619 139.092987,229.707092 139.478302,228.557297   C139.478302,228.557297 139.631241,228.478989 140.337982,228.640549   C144.929810,222.901718 147.067657,216.218109 148.064087,208.208481   C148.262161,204.716705 148.460251,201.224945 148.620270,197.041138   C148.637268,196.117645 148.654266,195.194153 148.873184,193.705124   C148.252151,193.414520 147.631119,193.123917 146.071732,192.790680   C135.476273,192.790680 124.880821,192.790680 114.288750,192.790680   C113.781586,196.653549 113.656349,199.819687 112.911652,202.832703   C111.203835,209.742386 108.010727,215.870529 101.306770,219.139267   C86.384933,226.414841 63.952728,221.094437 60.583427,199.506317   C60.160336,197.950104 59.737244,196.393875 59.279530,193.921600   C59.300213,174.005310 59.320900,154.089035 59.870255,133.933258   C59.698551,132.896027 59.526852,131.858795 59.318722,130.272751   C59.328129,129.906372 59.337536,129.539978 59.975021,128.756073   C60.165745,125.199776 60.356472,121.643486 60.379379,117.472298   C60.390617,117.048340 60.401859,116.624390 61.039974,115.930412   C62.297333,112.898827 63.554691,109.867249 64.872360,106.811356   C64.872360,106.811356 64.904144,106.868088 65.454597,106.849899   C65.613937,106.543640 65.773270,106.237389 66.411316,105.454056   C68.553329,103.556915 70.695343,101.659767 73.612106,99.913345   C75.399483,99.208786 77.186859,98.504219 79.571732,97.650230   C79.981880,97.664513 80.392036,97.678802 81.670616,97.965019   C85.533524,97.826309 89.396439,97.687599 93.865822,97.444679   C94.274628,97.447739 94.683441,97.450798 95.136353,98.014206   C95.738922,98.211418 96.341492,98.408630 97.523590,98.449150   C98.250160,98.747398 98.976723,99.045654 99.806091,99.899452   C100.183784,100.282158 100.561478,100.664864 101.331024,101.645615   C102.039459,101.700317 102.747902,101.755013 103.250343,102.315056   C103.498703,102.544289 103.747055,102.773521 104.247780,103.574196   C105.145500,104.430351 106.043213,105.286514 107.321777,106.656868   C107.733345,106.720284 108.144920,106.783699 108.461464,107.487556   C108.613472,108.033623 108.765488,108.579697 108.931160,109.837990   C110.090080,111.550316 111.249001,113.262642 112.520424,115.519157   C112.505890,115.888382 112.491356,116.257599 112.210449,117.253784   C112.677063,117.900665 113.143669,118.547546 113.698944,120.078644   C113.643951,123.071892 113.588951,126.065147 113.170013,129.450745   C113.105347,129.950043 113.040688,130.449326 113.426476,131.697357   C123.201782,131.792175 132.977097,131.939087 142.752396,131.939362   C144.790054,131.939423 146.827698,131.397293 148.990250,130.168549   C148.417145,125.375099 147.844040,120.581657 147.285690,115.191589   C147.280548,114.793861 147.275406,114.396133 147.624802,113.504967   C147.174484,112.597130 146.724152,111.689293 146.246017,110.189720   C146.244080,109.794991 146.242142,109.400261 146.680786,108.435188   C146.228806,107.700447 145.776825,106.965698 145.369995,105.424789   C143.765244,101.024033 143.154022,95.800682 140.339630,92.401443   C135.191376,86.183372 129.875610,79.972740 122.607117,75.654320   C114.992065,71.130020 106.889816,68.307915 98.340034,67.213005   C92.722092,66.493553 86.875938,67.556053 80.713684,67.186249   C79.176788,66.838783 77.462067,65.867798 76.132416,66.247009   C68.596054,68.396347 61.122032,70.781494 53.704315,73.313477   C52.399494,73.758873 51.461739,75.279625 49.774120,76.650543   C45.525116,80.778786 41.276115,84.907021 36.295826,89.087448   C35.614857,90.446075 34.933887,91.804710 34.181953,93.158730   C34.181953,93.158730 34.121319,93.195892 33.626564,93.259956   C33.296337,93.525047 33.267406,93.819740 33.340664,94.786522   C32.944633,95.583054 32.548603,96.379585 31.509155,97.332169   C30.806906,99.201561 30.104656,101.070961 29.665707,103.462135   C29.755154,103.635208 29.844603,103.808273 29.720818,104.318726   C29.720818,104.318726 29.630785,104.707565 29.207476,104.757202   C28.950571,105.151833 28.693668,105.546463 28.568439,106.618820   C28.580153,107.306282 28.591867,107.993744 28.171299,108.729897   C27.923738,109.140984 27.676178,109.552078 27.563675,110.647018   C27.598003,111.342865 27.632330,112.038719 26.945908,112.980415   C26.886583,115.325920 26.827259,117.671425 26.759274,120.952019   C26.853586,150.289703 26.947897,179.627396 26.916599,209.792191   C28.939091,215.348068 30.899397,220.928253 33.052948,226.432861   C33.366184,227.233490 34.603439,227.672607 35.596779,228.468781   C35.596779,228.468781 35.703579,228.710327 35.498123,229.354446   C36.085430,230.140442 36.672741,230.926422 37.308952,231.739548   C37.308952,231.739548 37.359344,231.763794 37.241467,232.414902  M216.214706,184.627899   C216.214706,184.627899 216.175308,184.314117 216.833267,184.246841   C217.494385,184.243454 218.155502,184.240067 219.128387,184.838379   C221.709091,188.687531 224.348953,192.498703 226.852081,196.397675   C228.912125,199.606491 230.810043,202.919418 233.014832,206.878189   C234.355026,209.909119 235.695236,212.940048 237.063660,216.717529   C241.490402,226.446716 245.865280,236.200333 250.419418,245.869507   C250.905731,246.902008 252.438736,247.441544 254.352371,248.304214   C264.481781,248.327454 274.611206,248.350693 284.928711,248.862015   C286.466797,249.058548 288.004883,249.255066 289.542969,249.451599   C289.666870,249.023987 289.790771,248.596375 289.914673,248.168762   C288.907837,247.480301 287.901001,246.791855 286.534851,245.554733   C286.188416,244.770126 285.842010,243.985519 285.637390,242.712265   C285.390076,242.518250 285.142792,242.324234 284.556122,241.566498   C284.187897,240.780945 283.819641,239.995392 283.598480,238.734146   C283.497803,238.341690 283.246552,238.171570 282.524231,237.757080   C282.474091,237.575134 282.423981,237.393188 282.540649,236.756348   C282.451691,236.370590 282.210602,236.201035 281.531372,235.821747   C281.479218,235.658875 281.427032,235.496002 281.628357,234.710281   C280.974060,233.928543 280.319763,233.146805 279.447327,231.869186   C279.415466,231.691437 279.383606,231.513702 279.654266,230.713699   C279.345093,230.103912 279.035919,229.494141 278.475372,228.237640   C275.569275,223.091690 272.497070,218.031326 269.792145,212.781723   C264.361847,202.242935 259.132111,191.600830 254.191589,180.383255   C255.858963,179.393173 257.467987,178.284042 259.203705,177.433487   C267.078705,173.574463 273.319794,168.259735 278.194000,160.655502   C285.232605,149.674515 287.734924,137.926178 287.731537,125.112259   C287.606384,124.662704 287.481232,124.213142 287.338379,122.968903   C287.296844,121.644859 287.255280,120.320816 287.618896,118.405716   C287.188110,116.530869 286.757324,114.656021 286.333099,112.159737   C286.398346,111.752022 286.463562,111.344307 286.793854,110.466904   C286.408752,109.994881 286.023682,109.522858 285.482758,108.354118   C285.540802,107.645897 285.598877,106.937683 285.949371,105.577667   C285.625854,105.058350 285.302307,104.539040 284.709564,103.670464   C284.709564,103.670464 284.655701,103.232758 284.960449,102.602341   C284.679230,102.052750 284.398010,101.503151 283.851990,100.572243   C283.851990,100.572243 283.823883,100.108849 283.890106,99.544724   C283.581238,99.378799 283.272369,99.212883 282.483948,98.516853   C281.915222,97.053726 281.346497,95.590599 280.901917,93.577789   C280.620148,93.366432 280.338379,93.155083 279.628540,92.423050   C278.703979,91.299812 277.491699,90.309364 276.902039,89.031586   C273.323669,81.277092 266.067841,77.136787 259.292450,73.683060   C250.753311,69.330254 241.248077,66.170021 231.113541,67.314865   C231.113541,67.314865 230.955322,66.956963 230.534348,66.202789   C211.828400,66.140198 193.122452,66.068069 174.416458,66.051155   C173.695602,66.050499 172.974274,66.581009 172.142990,67.813034   C172.110168,127.262505 172.072052,186.711975 172.080917,246.161453   C172.081100,247.401031 172.624832,248.640533 173.611115,249.803040   C174.088654,249.343765 174.566193,248.884476 175.971207,248.330261   C183.984894,248.348175 191.998566,248.366089 200.227753,248.991989   C201.218063,248.826736 202.208374,248.661469 203.690811,248.325043   C203.850723,248.257324 204.010651,248.189590 204.424423,248.238342   C204.424423,248.238342 204.671341,248.107773 205.314682,248.409531   C205.531815,246.639755 205.931290,244.870651 205.937759,243.100098   C206.000580,225.939072 205.997620,208.777771 206.012985,191.616562   C206.014572,189.850266 206.013199,188.083969 206.013199,186.745178   C209.839935,186.043549 212.949554,185.473404 216.214706,184.627899  M436.554565,249.472672   C436.554565,249.472672 436.479462,249.509384 436.554565,249.472672  z" fill="#000000" opacity="1.000000" stroke="none"/>
 <path d=" M467.329376,202.151840   C467.310120,206.746552 467.290833,211.341248 467.233612,216.716705   C467.237640,217.714905 467.279572,217.932343 467.321533,218.149765   C467.277527,220.479813 467.233490,222.809860 466.791016,225.785873   C464.480927,230.724457 463.690399,234.962387 467.005554,239.000061   C467.059998,239.446457 467.114471,239.892838 466.735840,240.777954   C458.983582,242.410446 451.676666,243.693237 444.331848,244.699844   C443.257904,244.847015 441.988312,243.707764 440.836884,243.110474   C439.541473,242.438492 438.277466,241.706116 436.999786,241.000000   C436.948303,240.246902 436.896820,239.493790 437.169922,238.244125   C437.330811,236.831818 437.167023,235.916092 437.003265,235.000351   C436.949005,232.625641 436.894745,230.250916 437.120911,227.343872   C437.277130,226.207886 437.152924,225.604218 437.028687,225.000549   C436.942871,198.194244 436.858704,171.387955 436.768005,144.581665   C436.760681,142.417419 436.708618,140.253342 436.748230,137.204849   C436.819122,133.897095 436.819122,131.473694 436.819122,129.181274   C435.869202,131.099167 434.925690,133.004074 433.982239,134.908997   C432.599182,136.683578 430.647858,138.252747 429.920746,140.264389   C422.378235,161.132446 415.032898,182.071777 407.311951,203.545746   C404.657410,210.124634 402.323700,216.149094 399.989990,222.173553   C392.944214,222.182526 385.898499,222.191483 378.325867,221.860229   C377.233276,220.987244 376.667572,220.454468 376.101868,219.921692   C372.473846,209.175613 368.845825,198.429520 365.192596,187.059998   C365.116821,185.622040 365.241302,184.748520 364.989716,184.001755   C360.830627,171.658371 356.656464,159.319733 352.375488,147.018387   C351.975861,145.870087 350.833160,144.980408 350.035492,143.970642   C348.791870,141.536896 347.548248,139.103149 346.136841,136.008987   C345.943970,133.759827 346.349579,131.992523 345.783875,130.627884   C345.089874,128.953842 343.583740,127.616470 342.183167,126.464020   C341.625275,129.067169 341.044678,131.339401 341.040955,133.612595   C340.984650,168.099655 341.006012,202.586838 341.004028,237.073990   C341.003510,245.997726 340.995392,245.997955 331.845245,246.000290   C328.179932,246.001205 324.504700,245.831070 320.851929,246.045166   C316.580139,246.295532 314.595032,244.622849 314.977661,240.256439   C315.122559,238.603195 314.998169,236.926437 314.998138,235.260391   C314.996887,182.280121 315.021698,129.299805 314.912231,76.319763   C314.907196,73.881599 313.696808,71.445923 313.047821,69.009094   C312.985443,68.826233 312.923065,68.643372 313.365662,68.204933   C315.870087,67.980537 317.870697,68.070038 319.868958,68.033173   C330.668060,67.833969 341.466583,67.603455 352.265289,67.383736   C352.688965,67.460678 353.112640,67.537613 353.863098,68.112000   C355.945068,73.155952 357.700287,77.702461 359.455505,82.248962   C359.455536,82.248955 359.642181,82.706123 359.753052,83.146988   C359.863892,83.587845 360.015503,84.014297 360.015503,84.014297   C367.657745,106.019188 375.288483,128.028091 382.951630,150.025711   C384.555115,154.628723 386.210541,159.217102 388.018188,163.741837   C388.290955,164.424545 389.529999,164.721222 390.884857,164.844940   C393.617676,159.179779 395.981964,153.934341 397.881744,148.525787   C398.948395,145.489197 399.247162,142.182877 399.891876,138.998077   C403.934174,127.230141 407.967743,115.459183 412.036194,103.700287   C412.344421,102.809364 412.900452,102.004173 413.722168,100.557846   C415.083191,96.642365 416.063293,93.328156 417.043396,90.013954   C417.043396,90.013954 417.377747,89.791267 417.678894,89.341606   C419.182831,85.205742 420.385559,81.519539 421.588318,77.833344   C421.973694,76.605392 422.359070,75.377441 422.965302,73.830856   C423.530731,73.435341 423.672241,73.222984 423.610657,72.875168   C423.657013,72.442772 423.703369,72.010376 423.901489,71.007355   C424.257141,69.557251 424.461029,68.677757 424.664917,67.798271   C430.755829,67.778114 436.846710,67.757950 443.773132,67.807571   C445.119843,67.814125 445.631012,67.750900 446.142181,67.687675   C449.088898,67.709320 452.035583,67.730965 455.878448,67.854790   C459.585754,67.788712 462.396881,67.620453 465.208038,67.452194   C465.884979,69.243835 467.138458,71.031418 467.151123,72.827736   C467.303864,94.526741 467.273315,116.227036 467.249634,138.712402   C467.251404,139.716125 467.294067,139.934464 467.336761,140.152817   C467.320190,142.104584 467.303619,144.056351 467.245178,146.752472   C467.245239,147.715042 467.287170,147.933273 467.329163,148.151505   C467.314606,150.102859 467.300049,152.054230 467.249603,154.752365   C467.257080,155.718613 467.300476,155.938095 467.343872,156.157578   C467.320129,168.749893 467.296387,181.342224 467.188416,194.814560   C467.182007,196.846878 467.259766,197.999176 467.337524,199.151474   C467.321594,199.527481 467.305664,199.903488 467.246033,200.887939   C467.244659,201.714874 467.287018,201.933350 467.329376,202.151840  z" fill="#086BBB" opacity="1.000000" stroke="none"/>
 <path d=" M287.358795,125.233047   C287.734924,137.926178 285.232605,149.674515 278.194000,160.655502   C273.319794,168.259735 267.078705,173.574463 259.203705,177.433487   C257.467987,178.284042 255.858963,179.393173 253.672943,180.658417   C251.747070,180.933563 250.339859,180.933563 248.895340,180.933563   C248.809097,181.865341 248.538132,182.514328 248.753036,182.809174   C252.651291,188.157318 256.382507,193.556808 257.247284,200.392822   C257.330475,201.050552 258.241028,201.757385 258.931824,202.158325   C262.223206,204.068649 263.244263,206.966263 263.035980,210.597534   C262.823608,214.299637 264.153320,216.876450 268.041687,218.202591   C269.505432,218.701813 270.824799,220.718384 271.440735,222.336105   C272.233337,224.417984 272.439667,226.784225 272.562469,229.046219   C272.766968,232.812317 273.276001,236.716446 272.498901,240.312241   C272.141907,241.964111 268.838684,244.349670 267.222076,244.103180   C262.275513,243.348984 257.498901,241.480072 252.310974,239.942429   C253.226486,236.625259 251.211441,235.679840 247.967667,236.031860   C247.984482,236.018692 247.968842,236.048935 247.888702,235.774353   C247.538055,234.999374 247.267532,234.498978 246.857300,233.742462   C246.414490,232.777618 246.111420,232.068909 245.966400,230.971527   C246.347473,228.078644 246.570496,225.574448 246.793518,223.070236   C246.024155,222.642700 245.254791,222.215164 244.485443,221.787613   C243.936600,222.944839 243.387772,224.102066 242.609924,224.992462   C240.599075,221.807404 238.817245,218.889206 237.035431,215.970993   C235.695236,212.940048 234.355026,209.909119 232.903381,206.162598   C229.988022,199.255844 227.407471,192.945724 224.219513,186.959045   C223.445175,185.504913 220.671158,185.115601 218.816620,184.236664   C218.155502,184.240067 217.494385,184.243454 216.043671,184.169586   C213.922974,184.047363 212.591965,183.966888 211.260757,183.963379   C204.000168,183.944199 204.007065,183.950745 203.975830,191.051392   C203.924545,202.709885 203.863266,214.368332 203.516449,226.259247   C202.819809,231.035126 202.104980,235.577972 202.096176,240.122192   C202.088058,244.323975 200.696121,246.246750 196.306824,246.039246   C191.504974,245.812241 186.683868,246.010895 181.871353,245.986313   C175.387772,245.953186 175.174240,245.634216 174.988815,239.294205   C174.800827,232.866776 174.400650,226.445557 174.049255,219.642029   C174.027847,218.499893 174.050583,217.737335 174.378342,216.757202   C175.116684,214.675873 175.949799,212.805328 175.918427,210.949417   C175.714981,198.918961 175.347824,186.890884 174.957428,174.864517   C174.915955,173.587051 174.377090,172.325745 174.026154,170.672943   C174.012573,169.518097 174.041809,168.747223 174.354736,167.801605   C175.985031,163.362793 177.402222,159.095718 174.059509,154.681915   C174.043961,153.864548 174.066040,153.396820 174.260193,152.577087   C174.918793,143.579071 175.474579,134.935684 175.802765,126.283684   C175.843155,125.219322 174.667633,124.108849 174.011200,122.569138   C174.004959,119.403114 174.043106,116.687714 174.384766,113.754349   C176.472992,108.615074 177.335205,103.732803 174.025986,98.592659   C174.009048,96.421661 174.040222,94.683044 174.233612,92.659668   C174.277634,90.927994 174.159439,89.481079 173.994354,87.581375   C173.992050,84.397232 174.036667,81.665871 174.257568,78.567535   C174.692871,74.870071 174.951889,71.539589 175.553497,68.155746   C176.748611,68.341423 177.601105,68.580444 178.836823,68.976044   C181.327820,69.028549 183.435608,68.924492 185.656311,68.613876   C185.769211,68.407333 186.240021,68.410484 186.240021,68.410484   C186.240021,68.410484 186.453842,68.829948 186.871902,68.993164   C191.709824,68.968086 196.129669,68.779808 200.781189,68.435722   C201.492371,68.453598 201.971924,68.627281 202.822815,68.956947   C204.980011,68.995430 206.765823,68.877945 208.861374,68.541389   C210.601791,68.528969 212.032471,68.735619 213.720337,68.901138   C214.497482,68.884186 215.017471,68.908371 215.791183,68.636429   C221.069855,68.128899 226.094803,67.917511 231.119751,67.706123   C241.248077,66.170021 250.753311,69.330254 259.292450,73.683060   C266.067841,77.136787 273.323669,81.277092 276.902039,89.031586   C277.491699,90.309364 278.703979,91.299812 279.960663,92.882477   C280.497101,93.577423 280.658752,93.839279 280.777771,94.127472   C281.346497,95.590599 281.915222,97.053726 282.869934,98.956909   C283.477570,99.608459 283.666901,99.845757 283.823883,100.108849   C283.823883,100.108849 283.851990,100.572243 283.738098,100.909958   C283.968048,101.909363 284.311890,102.571060 284.655701,103.232758   C284.655701,103.232758 284.709564,103.670464 284.594330,103.968674   C284.871704,104.921074 285.264313,105.575272 285.656921,106.229462   C285.598877,106.937683 285.540802,107.645897 285.471313,108.930244   C285.816162,109.983109 286.172485,110.459846 286.528809,110.936584   C286.463562,111.344307 286.398346,111.752022 286.233093,112.870865   C286.493317,115.386925 286.853516,117.191849 287.213715,118.996773   C287.255280,120.320816 287.296844,121.644859 287.286011,123.733719   C287.275391,124.743370 287.317078,124.988213 287.358795,125.233047  M247.947052,107.039093   C247.947052,107.039093 247.916367,107.054710 247.955368,106.332359   C246.491959,104.756592 245.028549,103.180824 243.477844,101.448746   C243.477844,101.448746 243.315887,101.372414 242.908585,100.872986   C237.546021,99.327972 232.183441,97.782967 225.906540,96.237587   C219.653656,96.221321 213.400757,96.205055 206.431870,96.049423   C205.674576,97.050735 204.917282,98.052055 204.085419,99.981285   C204.070129,117.461189 203.994751,134.941574 204.131088,152.420288   C204.144958,154.197998 205.432159,155.965775 207.048538,157.781845   C213.707214,157.792114 220.376251,158.020599 227.019424,157.704849   C229.661423,157.579254 232.246124,156.248550 235.482895,155.815826   C238.706757,154.284531 241.930618,152.753235 245.590729,150.777039   C246.470184,149.892548 247.349640,149.008057 248.704926,147.840546   C248.906326,147.342636 249.107742,146.844711 249.680328,145.849838   C250.023666,145.343002 250.367004,144.836151 251.126541,144.050720   C251.313583,143.610733 251.500610,143.170746 251.812912,142.083267   C252.107788,141.055237 252.402664,140.027206 253.077606,138.713028   C253.012909,138.142197 252.948212,137.571381 252.977173,136.151001   C253.226013,129.837082 253.474854,123.523155 253.773865,116.458420   C252.215210,113.611015 250.656555,110.763603 249.075195,107.938660   C249.075195,107.938660 249.062195,107.909775 248.763031,107.536812   C248.542999,107.288162 248.269760,107.133591 247.947052,107.039093  z" fill="#086BBB" opacity="1.000000" stroke="none"/>
 <path d=" M96.765533,253.617706   C95.734261,253.568893 94.702995,253.520081 92.918427,253.296280   C88.692413,253.202820 85.219688,253.284332 81.746971,253.365860   C80.771355,253.433182 79.795738,253.500504 78.395920,253.356354   C77.004196,252.937805 76.036667,252.730728 75.069145,252.523651   C60.787453,251.244705 48.604832,245.785126 39.148048,233.966888   C38.442566,232.830292 37.900959,232.297043 37.359348,231.763794   C37.359344,231.763794 37.308952,231.739548 37.277058,231.435211   C36.731300,230.324036 36.217438,229.517181 35.703575,228.710327   C35.703579,228.710327 35.596779,228.468781 35.402222,228.056427   C32.907795,221.583496 30.607924,215.522949 28.522633,209.138153   C28.827511,196.379593 28.779097,183.942383 29.038857,171.511612   C29.489552,149.943558 30.141321,128.379730 30.657072,106.812897   C30.679491,105.875343 30.186796,104.925476 29.934053,103.981346   C29.844603,103.808273 29.755154,103.635208 29.883377,103.055557   C30.784891,100.824684 31.468733,99.000404 32.152573,97.176117   C32.548603,96.379585 32.944633,95.583054 33.599777,94.352203   C34.042065,93.712006 34.129543,93.471344 34.121319,93.195892   C34.121319,93.195892 34.181953,93.158730 34.506058,93.024582   C35.562477,91.605377 36.294796,90.320320 37.027115,89.035255   C41.276115,84.907021 45.525116,80.778786 50.406456,76.431694   C60.517185,71.433632 70.347687,67.917015 81.131989,67.820557   C86.875938,67.556053 92.722092,66.493553 98.340034,67.213005   C106.889816,68.307915 114.992065,71.130020 122.607117,75.654320   C129.875610,79.972740 135.191376,86.183372 140.339630,92.401443   C143.154022,95.800682 143.765244,101.024033 145.253220,106.071884   C145.504364,107.481163 145.872284,108.243347 146.240219,109.005531   C146.242142,109.400261 146.244080,109.794991 146.206833,110.835976   C146.535187,112.320961 146.902725,113.159683 147.270264,113.998405   C147.275406,114.396133 147.280548,114.793861 147.181946,115.953781   C147.382904,121.134102 147.687622,125.552246 147.524170,129.978027   C142.603271,129.960419 138.147827,130.024170 133.698425,129.889114   C126.974731,129.684982 120.255234,129.342239 113.533951,129.058395   C113.588951,126.065147 113.643951,123.071892 113.718033,119.336777   C113.317024,117.938881 112.896927,117.282852 112.476822,116.626823   C112.491356,116.257599 112.505890,115.888382 112.561134,114.965179   C111.373734,112.649399 110.145615,110.887581 108.917496,109.125763   C108.765488,108.579697 108.613472,108.033623 108.511185,106.948273   C108.020920,106.320221 107.480927,106.231445 106.940933,106.142670   C106.043213,105.286514 105.145500,104.430351 104.109062,103.060135   C103.875351,102.247299 103.704018,102.001846 103.456337,101.809708   C102.747902,101.755013 102.039459,101.700317 101.143776,101.044456   C100.538780,100.076836 100.121033,99.710373 99.703293,99.343903   C98.976723,99.045654 98.250160,98.747398 97.151474,98.291885   C96.216980,97.907692 95.654617,97.680771 95.092247,97.453857   C94.683441,97.450798 94.274628,97.447739 93.329178,97.191910   C88.795753,97.190460 84.798965,97.441772 80.802185,97.693085   C80.392036,97.678802 79.981880,97.664513 79.010437,97.568634   C76.578560,98.245575 74.707962,99.004105 72.837357,99.762619   C70.695343,101.659767 68.553329,103.556915 65.983917,105.829834   C65.318214,106.405907 65.100761,106.626740 64.904144,106.868088   C64.904144,106.868088 64.872360,106.811356 64.524826,106.937134   C62.922558,110.108749 61.667828,113.154587 60.413101,116.200432   C60.401859,116.624390 60.390617,117.048340 60.162506,118.071259   C59.746067,122.171349 59.546505,125.672470 59.346943,129.173599   C59.337536,129.539978 59.328129,129.906372 59.228004,130.959198   C59.205387,132.488022 59.273483,133.330383 59.341583,134.172745   C59.320900,154.089035 59.300213,174.005310 59.194748,194.763916   C59.442909,197.067215 59.775848,198.528183 60.108788,199.989166   C63.952728,221.094437 86.384933,226.414841 101.306770,219.139267   C108.010727,215.870529 111.203835,209.742386 112.911652,202.832703   C113.656349,199.819687 113.781586,196.653549 114.288750,192.790680   C124.880821,192.790680 135.476273,192.790680 146.693146,193.046417   C147.766800,193.625000 148.219040,193.947830 148.671265,194.270660   C148.654266,195.194153 148.637268,196.117645 148.388062,197.663040   C147.776993,201.858139 147.398132,205.431320 146.822357,209.310501   C144.294052,215.903992 141.962646,222.191483 139.631241,228.478989   C139.631241,228.478989 139.478302,228.557297 139.212296,228.824448   C138.567078,229.985916 138.187851,230.880249 137.808640,231.774567   C137.808640,231.774567 137.766846,231.796661 137.472931,231.884094   C136.798264,232.981903 136.417542,233.992249 136.036804,235.002609   C129.137497,243.137711 119.685555,247.100006 109.851440,251.005142   C109.591713,251.148132 109.686218,251.034592 109.686218,251.034592   C109.686218,251.034592 109.453293,251.380264 109.453293,251.380280   C108.443581,251.401611 107.433861,251.422943 105.936172,251.409485   C104.908897,251.830261 104.369598,252.285828 103.830307,252.741394   C103.095848,252.636505 102.361404,252.531616 100.982704,252.298019   C99.147476,252.652115 97.956505,253.134903 96.765533,253.617706  z" fill="#086BBA" opacity="1.000000" stroke="none"/>
 <path d=" M312.960632,69.422173   C313.696808,71.445923 314.907196,73.881599 314.912231,76.319763   C315.021698,129.299805 314.996887,182.280121 314.998138,235.260391   C314.998169,236.926437 315.122559,238.603195 314.977661,240.256439   C314.595032,244.622849 316.580139,246.295532 320.851929,246.045166   C324.504700,245.831070 328.179932,246.001205 331.845245,246.000290   C340.995392,245.997955 341.003510,245.997726 341.004028,237.073990   C341.006012,202.586838 340.984650,168.099655 341.040955,133.612595   C341.044678,131.339401 341.625275,129.067169 342.179657,126.895157   C342.661865,130.691422 342.902008,134.387009 343.142151,138.082596   C343.122131,174.464706 343.102112,210.846802 342.793793,247.552368   C342.174744,247.957596 341.992645,248.167999 341.959137,248.507050   C334.672150,248.421722 327.385193,248.336395 319.295502,248.226044   C318.258209,248.267075 318.023590,248.333115 317.789001,248.399139   C316.358276,248.124954 314.927582,247.850769 313.497986,246.911987   C313.394073,245.157150 313.289093,244.066879 313.184113,242.976624   C313.063263,234.678711 312.840942,226.380814 312.838440,218.082870   C312.824677,172.699188 312.864838,127.315498 313.179810,81.217369   C313.348663,78.345863 313.224274,76.188789 313.099884,74.031723   C313.024414,72.632896 312.948944,71.234077 312.960632,69.422173  z" fill="#0978D1" opacity="1.000000" stroke="none"/>
 <path d=" M247.950851,236.045044   C251.211441,235.679840 253.226486,236.625259 252.310974,239.942429   C257.498901,241.480072 262.275513,243.348984 267.222076,244.103180   C268.838684,244.349670 272.141907,241.964111 272.498901,240.312241   C273.276001,236.716446 272.766968,232.812317 272.562469,229.046219   C272.439667,226.784225 272.233337,224.417984 271.440735,222.336105   C270.824799,220.718384 269.505432,218.701813 268.041687,218.202591   C264.153320,216.876450 262.823608,214.299637 263.035980,210.597534   C263.244263,206.966263 262.223206,204.068649 258.931824,202.158325   C258.241028,201.757385 257.330475,201.050552 257.247284,200.392822   C256.382507,193.556808 252.651291,188.157318 248.753036,182.809174   C248.538132,182.514328 248.809097,181.865341 248.895340,180.933563   C250.339859,180.933563 251.747070,180.933563 253.486954,180.967468   C259.132111,191.600830 264.361847,202.242935 269.792145,212.781723   C272.497070,218.031326 275.569275,223.091690 278.393433,228.731247   C278.658234,229.928558 279.005005,230.632248 279.351776,231.335953   C279.383606,231.513702 279.415466,231.691437 279.560364,232.417114   C280.240540,233.754395 280.807709,234.543762 281.374847,235.333130   C281.427032,235.496002 281.479218,235.658875 281.689941,236.232056   C281.941193,236.908142 282.116272,237.097763 282.373840,237.211258   C282.423981,237.393188 282.474091,237.575134 282.713501,238.192444   C283.004822,238.898010 283.187683,239.092026 283.451385,239.209854   C283.819641,239.995392 284.187897,240.780945 284.764709,242.057281   C285.066986,242.829987 285.241089,243.047607 285.495575,243.200912   C285.842010,243.985519 286.188416,244.770126 286.626892,246.158936   C286.059540,247.300079 285.400085,247.837006 284.740631,248.373932   C274.611206,248.350693 264.481781,248.327454 253.804565,247.950012   C251.488129,243.745560 249.719482,239.895294 247.950851,236.045044  z" fill="#086BBB" opacity="1.000000" stroke="none"/>
 <path d=" M29.827435,104.150040   C30.186796,104.925476 30.679491,105.875343 30.657072,106.812897   C30.141321,128.379730 29.489552,149.943558 29.038857,171.511612   C28.779097,183.942383 28.827511,196.379593 28.300903,209.099884   C27.561554,209.302200 27.287426,209.161942 27.042210,208.965088   C26.947897,179.627396 26.853586,150.289703 26.964140,120.136780   C27.334888,117.125885 27.500772,114.930222 27.666656,112.734566   C27.632330,112.038719 27.598003,111.342865 27.769691,110.167511   C28.185001,109.352409 28.394293,109.016808 28.603582,108.681206   C28.591867,107.993744 28.580153,107.306282 28.796341,106.174820   C29.226423,105.389732 29.428606,105.048653 29.630787,104.707565   C29.630785,104.707565 29.720818,104.318726 29.827435,104.150040  z" fill="#096FC2" opacity="1.000000" stroke="none"/>
 <path d=" M172.914978,249.880081   C172.624832,248.640533 172.081100,247.401031 172.080917,246.161453   C172.072052,186.711975 172.110168,127.262505 172.396240,67.343613   C172.649475,66.874184 173.018280,67.019455 173.156708,67.240555   C173.562637,67.683182 173.830139,67.904716 174.079391,68.548950   C173.994629,70.667458 173.928101,72.363251 173.685318,74.426582   C173.335037,76.438774 173.009659,78.083366 173.008926,79.728096   C172.985733,131.822769 172.984589,183.917450 173.034409,236.012085   C173.036270,237.963348 173.579788,239.914093 173.913132,242.277679   C174.020233,244.343231 174.085114,245.996170 173.950302,247.901093   C173.472076,248.728745 173.193527,249.304413 172.914978,249.880081  z" fill="#094D89" opacity="1.000000" stroke="none"/>
 <path d=" M436.911194,241.430298   C438.277466,241.706116 439.541473,242.438492 440.836884,243.110474   C441.988312,243.707764 443.257904,244.847015 444.331848,244.699844   C451.676666,243.693237 458.983582,242.410446 466.656830,241.108292   C467.107910,242.022461 467.204895,243.045029 467.209778,244.820038   C466.358643,246.501877 465.599640,247.431244 464.840668,248.360626   C455.667786,248.360626 446.494873,248.360626 436.822571,248.360626   C436.822571,245.732529 436.822571,243.796555 436.911194,241.430298  z" fill="#086BBA" opacity="1.000000" stroke="none"/>
 <path d=" M174.149994,247.649109   C174.085114,245.996170 174.020233,244.343231 173.941559,241.821136   C173.982971,233.975204 174.038177,226.998398 174.093399,220.021606   C174.400650,226.445557 174.800827,232.866776 174.988815,239.294205   C175.174240,245.634216 175.387772,245.953186 181.871353,245.986313   C186.683868,246.010895 191.504974,245.812241 196.306824,246.039246   C200.696121,246.246750 202.088058,244.323975 202.096176,240.122192   C202.104980,235.577972 202.819809,231.035126 203.562103,226.724121   C203.988541,234.011673 204.079575,241.066757 204.170593,248.121841   C204.010651,248.189590 203.850723,248.257324 203.155884,248.234222   C201.751404,248.223587 200.881821,248.303802 200.012253,248.384003   C191.998566,248.366089 183.984894,248.348175 175.398560,248.208466   C174.592850,247.952805 174.367538,247.806946 174.149994,247.649109  z" fill="#0A75CA" opacity="1.000000" stroke="none"/>
 <path d=" M174.097626,68.126244   C173.830139,67.904716 173.562637,67.683182 173.624023,67.234009   C192.953705,66.989899 211.954514,66.973434 230.955322,66.956963   C230.955322,66.956963 231.113541,67.314865 231.116638,67.510498   C226.094803,67.917511 221.069855,68.128899 215.269775,68.438210   C214.150803,68.671509 213.806992,68.806892 213.463165,68.942276   C212.032471,68.735619 210.601791,68.528969 208.374268,68.331825   C205.868774,68.494545 204.160110,68.647751 202.451462,68.800964   C201.971924,68.627281 201.492371,68.453598 200.369629,68.269943   C195.302246,68.449966 190.878036,68.639961 186.453842,68.829956   C186.453842,68.829948 186.240021,68.410484 186.240021,68.410484   C186.240021,68.410484 185.769211,68.407333 185.184570,68.372688   C182.551147,68.498520 180.502365,68.658989 178.453598,68.819466   C177.601105,68.580444 176.748611,68.341423 175.374969,68.090729   C174.597610,68.027832 174.345535,68.043564 174.097626,68.126244  z" fill="#03203C" opacity="1.000000" stroke="none"/>
 <path d=" M350.026733,144.351654   C350.833160,144.980408 351.975861,145.870087 352.375488,147.018387   C356.656464,159.319733 360.830627,171.658371 364.989716,184.001755   C365.241302,184.748520 365.116821,185.622040 365.031281,186.721100   C359.936127,172.914627 354.977051,158.823639 350.026733,144.351654  z" fill="#06325D" opacity="1.000000" stroke="none"/>
 <path d=" M204.297516,248.180084   C204.079575,241.066757 203.988541,234.011673 203.851868,226.491699   C203.863266,214.368332 203.924545,202.709885 203.975830,191.051392   C204.007065,183.950745 204.000168,183.944199 211.260757,183.963379   C212.591965,183.966888 213.922974,184.047363 215.714691,184.203217   C216.175308,184.314117 216.214706,184.627899 215.674133,184.790985   C213.638367,184.959686 212.108902,185.172943 210.654205,184.932968   C205.791718,184.130768 204.761963,186.483597 204.939651,190.830872   C205.231232,197.964264 205.075638,205.118149 205.025604,212.262802   C204.941940,224.211380 204.792877,236.159470 204.671341,248.107773   C204.671341,248.107773 204.424423,248.238342 204.297516,248.180084  z" fill="#04284C" opacity="1.000000" stroke="none"/>
 <path d=" M204.993011,248.258652   C204.792877,236.159470 204.941940,224.211380 205.025604,212.262802   C205.075638,205.118149 205.231232,197.964264 204.939651,190.830872   C204.761963,186.483597 205.791718,184.130768 210.654205,184.932968   C212.108902,185.172943 213.638367,184.959686 215.596375,184.928665   C212.949554,185.473404 209.839935,186.043549 206.013199,186.745178   C206.013199,188.083969 206.014572,189.850266 206.012985,191.616562   C205.997620,208.777771 206.000580,225.939072 205.937759,243.100098   C205.931290,244.870651 205.531815,246.639755 204.993011,248.258652  z" fill="#1277C5" opacity="1.000000" stroke="none"/>
 <path d=" M247.967667,236.031860   C249.719482,239.895294 251.488129,243.745560 253.371460,247.902786   C252.438736,247.441544 250.905731,246.902008 250.419418,245.869507   C245.865280,236.200333 241.490402,226.446716 237.049530,216.344269   C238.817245,218.889206 240.599075,221.807404 242.704514,225.314514   C243.954865,227.722321 244.881607,229.541245 245.808350,231.360184   C246.111420,232.068909 246.414490,232.777618 246.887207,234.034119   C247.360825,235.070908 247.664825,235.559921 247.968842,236.048935   C247.968842,236.048935 247.984482,236.018692 247.967667,236.031860  z" fill="#053561" opacity="1.000000" stroke="none"/>
 <path d=" M230.744843,66.579880   C211.954514,66.973434 192.953705,66.989899 173.485596,67.012909   C173.018280,67.019455 172.649475,66.874184 172.451324,66.869095   C172.974274,66.581009 173.695602,66.050499 174.416458,66.051155   C193.122452,66.068069 211.828400,66.140198 230.744843,66.579880  z" fill="#1287CD" opacity="1.000000" stroke="none"/>
 <path d=" M80.922836,67.503403   C70.347687,67.917015 60.517185,71.433632 50.696632,76.258301   C51.461739,75.279625 52.399494,73.758873 53.704315,73.313477   C61.122032,70.781494 68.596054,68.396347 76.132416,66.247009   C77.462067,65.867798 79.176788,66.838783 80.922836,67.503403  z" fill="#073963" opacity="1.000000" stroke="none"/>
 <path d=" M218.972504,184.537521   C220.671158,185.115601 223.445175,185.504913 224.219513,186.959045   C227.407471,192.945724 229.988022,199.255844 232.785858,205.816620   C230.810043,202.919418 228.912125,199.606491 226.852081,196.397675   C224.348953,192.498703 221.709091,188.687531 218.972504,184.537521  z" fill="#053561" opacity="1.000000" stroke="none"/>
 <path d=" M399.638123,139.253540   C399.247162,142.182877 398.948395,145.489197 397.881744,148.525787   C395.981964,153.934341 393.617676,159.179779 391.148529,164.660812   C393.694397,156.388458 396.539398,147.948730 399.638123,139.253540  z" fill="#053561" opacity="1.000000" stroke="none"/>
 <path d=" M312.892334,67.276367   C313.080627,66.875877 313.267700,66.125496 313.457428,66.124832   C326.381561,66.079590 339.305939,66.091583 352.230164,66.135880   C352.403961,66.136475 352.576141,66.610535 352.033569,66.994934   C338.509491,67.176300 325.700897,67.226334 312.892334,67.276367  z" fill="#1287CD" opacity="1.000000" stroke="none"/>
 <path d=" M26.979404,209.378632   C27.287426,209.161942 27.561554,209.302200 28.086325,209.424133   C30.607924,215.522949 32.907795,221.583496 35.310394,227.961533   C34.603439,227.672607 33.366184,227.233490 33.052948,226.432861   C30.899397,220.928253 28.939091,215.348068 26.979404,209.378632  z" fill="#073963" opacity="1.000000" stroke="none"/>
 <path d=" M139.984619,228.559769   C141.962646,222.191483 144.294052,215.903992 147.039917,209.311905   C147.454361,209.007324 147.889069,209.027649 147.889069,209.027649   C147.067657,216.218109 144.929810,222.901718 139.984619,228.559769  z" fill="#073963" opacity="1.000000" stroke="none"/>
 <path d=" M312.862579,67.430420   C325.700897,67.226334 338.509491,67.176300 351.773254,67.306290   C352.228455,67.486320 352.189606,67.419868 352.227448,67.401802   C341.466583,67.603455 330.668060,67.833969 319.868958,68.033173   C317.870697,68.070038 315.870087,67.980537 313.397736,67.916908   C312.924896,67.884460 312.832825,67.584473 312.862579,67.430420  z" fill="#03203C" opacity="1.000000" stroke="none"/>
 <path d=" M400.053589,222.424835   C402.323700,216.149094 404.657410,210.124634 407.285278,203.933075   C405.621185,209.978760 403.678131,216.196518 401.647308,222.385468   C401.569031,222.624023 400.646393,222.585526 400.053589,222.424835  z" fill="#073963" opacity="1.000000" stroke="none"/>
 <path d=" M343.431763,138.035645   C342.902008,134.387009 342.661865,130.691422 342.425232,126.564690   C343.583740,127.616470 345.089874,128.953842 345.783875,130.627884   C346.349579,131.992523 345.943970,133.759827 345.932159,135.715851   C345.170654,136.718307 344.446045,137.353516 343.431763,138.035645  z" fill="#012951" opacity="1.000000" stroke="none"/>
 <path d=" M113.351982,129.254578   C120.255234,129.342239 126.974731,129.684982 133.698425,129.889114   C138.147827,130.024170 142.603271,129.960419 147.512634,130.198181   C147.969269,130.410675 147.962952,130.851471 147.500763,130.918274   C135.684387,130.972916 124.330208,130.960770 112.976028,130.948608   C113.040688,130.449326 113.105347,129.950043 113.351982,129.254578  z" fill="#04284C" opacity="1.000000" stroke="none"/>
 <path d=" M113.201248,131.322983   C124.330208,130.960770 135.684387,130.972916 147.724426,130.988525   C148.410294,130.991989 148.865356,131.105042 148.865356,131.105042   C146.827698,131.397293 144.790054,131.939423 142.752396,131.939362   C132.977097,131.939087 123.201782,131.792175 113.201248,131.322983  z" fill="#1277C5" opacity="1.000000" stroke="none"/>
 <path d=" M148.927795,130.636795   C148.865356,131.105042 148.410294,130.991989 148.186615,130.921722   C147.962952,130.851471 147.969269,130.410675 147.980804,130.190521   C147.687622,125.552246 147.382904,121.134102 147.174561,116.252090   C147.844040,120.581657 148.417145,125.375099 148.927795,130.636795  z" fill="#073963" opacity="1.000000" stroke="none"/>
 <path d=" M467.094208,238.603622   C463.690399,234.962387 464.480927,230.724457 466.703094,226.215775   C467.102173,227.997147 467.190674,229.994583 467.240967,232.745392   C467.244720,233.716080 467.286682,233.933365 467.328613,234.150650   C467.280029,235.502823 467.231445,236.855011 467.094208,238.603622  z" fill="#086BBA" opacity="1.000000" stroke="none"/>
 <path d=" M359.575806,81.872009   C357.700287,77.702461 355.945068,73.155952 354.167847,68.225922   C355.995911,72.393280 357.846008,76.944168 359.575806,81.872009  z" fill="#053A6C" opacity="1.000000" stroke="none"/>
 <path d=" M81.236404,97.829056   C84.798965,97.441772 88.795753,97.190460 93.025940,97.244019   C89.396439,97.687599 85.533524,97.826309 81.236404,97.829056  z" fill="#053561" opacity="1.000000" stroke="none"/>
 <path d=" M81.964157,253.684174   C85.219688,253.284332 88.692413,253.202820 92.531998,253.271881   C89.326355,253.615814 85.753853,253.809158 81.964157,253.684174  z" fill="#053561" opacity="1.000000" stroke="none"/>
 <path d=" M59.660980,128.964844   C59.546505,125.672470 59.746067,122.171349 60.246414,118.378708   C60.356472,121.643486 60.165745,125.199776 59.660980,128.964844  z" fill="#04284C" opacity="1.000000" stroke="none"/>
 <path d=" M147.976578,208.618073   C147.889069,209.027649 147.454361,209.007324 147.236816,209.005920   C147.398132,205.431320 147.776993,201.858139 148.407104,198.009064   C148.460251,201.224945 148.262161,204.716705 147.976578,208.618073  z" fill="#012951" opacity="1.000000" stroke="none"/>
 <path d=" M421.282227,77.987610   C420.385559,81.519539 419.182831,85.205742 417.778534,89.167183   C418.710052,85.675575 419.843079,81.908730 421.282227,77.987610  z" fill="#042346" opacity="1.000000" stroke="none"/>
 <path d=" M465.007263,67.145836   C462.396881,67.620453 459.585754,67.788712 456.319611,67.833260   C458.845245,67.419518 461.825897,67.129494 465.007263,67.145836  z" fill="#042346" opacity="1.000000" stroke="none"/>
 <path d=" M60.726536,116.065422   C61.667828,113.154587 62.922558,110.108749 64.494675,106.949280   C63.554691,109.867249 62.297333,112.898827 60.726536,116.065422  z" fill="#04284C" opacity="1.000000" stroke="none"/>
 <path d=" M434.111206,135.179123   C434.925690,133.004074 435.869202,131.099167 436.819122,129.181274   C436.819122,131.473694 436.819122,133.897095 436.696350,136.750214   C435.795807,136.603012 435.018005,136.026138 434.111206,135.179123  z" fill="#042346" opacity="1.000000" stroke="none"/>
 <path d=" M416.713776,90.170471   C416.063293,93.328156 415.083191,96.642365 413.881104,100.219261   C414.567444,97.096962 415.475800,93.711975 416.713776,90.170471  z" fill="#042346" opacity="1.000000" stroke="none"/>
 <path d=" M312.942749,74.383865   C313.224274,76.188789 313.348663,78.345863 313.295837,80.765152   C313.007599,78.930252 312.896606,76.833138 312.942749,74.383865  z" fill="#086BBB" opacity="1.000000" stroke="none"/>
 <path d=" M27.306282,112.857491   C27.500772,114.930222 27.334888,117.125885 26.968472,119.669235   C26.827259,117.671425 26.886583,115.325920 27.306282,112.857491  z" fill="#053A6C" opacity="1.000000" stroke="none"/>
 <path d=" M287.416321,118.701248   C286.853516,117.191849 286.493317,115.386925 286.229828,113.181587   C286.757324,114.656021 287.188110,116.530869 287.416321,118.701248  z" fill="#06325D" opacity="1.000000" stroke="none"/>
 <path d=" M108.924332,109.481873   C110.145615,110.887581 111.373734,112.649399 112.504883,114.693085   C111.249001,113.262642 110.090080,111.550316 108.924332,109.481873  z" fill="#04284C" opacity="1.000000" stroke="none"/>
 <path d=" M284.834656,248.617981   C285.400085,247.837006 286.059540,247.300079 286.806580,246.433258   C287.901001,246.791855 288.907837,247.480301 289.914673,248.168762   C289.790771,248.596375 289.666870,249.023987 289.542969,249.451599   C288.004883,249.255066 286.466797,249.058548 284.834656,248.617981  z" fill="#053561" opacity="1.000000" stroke="none"/>
 <path d=" M73.224731,99.837982   C74.707962,99.004105 76.578560,98.245575 78.711693,97.643356   C77.186859,98.504219 75.399483,99.208786 73.224731,99.837982  z" fill="#053561" opacity="1.000000" stroke="none"/>
 <path d=" M60.346107,199.747742   C59.775848,198.528183 59.442909,197.067215 59.212059,195.221954   C59.737244,196.393875 60.160336,197.950104 60.346107,199.747742  z" fill="#04284C" opacity="1.000000" stroke="none"/>
 <path d=" M464.952759,248.593781   C465.599640,247.431244 466.358643,246.501877 467.236145,245.205811   C469.374115,248.666473 469.293915,248.806168 464.952759,248.593781  z" fill="#042346" opacity="1.000000" stroke="none"/>
 <path d=" M31.830866,97.254143   C31.468733,99.000404 30.784891,100.824684 29.751728,102.794662   C30.104656,101.070961 30.806906,99.201561 31.830866,97.254143  z" fill="#053A6C" opacity="1.000000" stroke="none"/>
 <path d=" M467.617218,199.013702   C467.259766,197.999176 467.182007,196.846878 467.217987,195.272842   C467.520111,196.192703 467.708496,197.534317 467.617218,199.013702  z" fill="#042346" opacity="1.000000" stroke="none"/>
 <path d=" M36.661469,89.061356   C36.294796,90.320320 35.562477,91.605377 34.541538,93.026886   C34.933887,91.804710 35.614857,90.446075 36.661469,89.061356  z" fill="#053A6C" opacity="1.000000" stroke="none"/>
 <path d=" M97.148453,253.748169   C97.956505,253.134903 99.147476,252.652115 100.611755,252.280853   C99.767166,252.887787 98.649269,253.383209 97.148453,253.748169  z" fill="#053561" opacity="1.000000" stroke="none"/>
 <path d=" M136.326797,234.852234   C136.417542,233.992249 136.798264,232.981903 137.449478,231.887146   C137.352234,232.769104 136.984512,233.735474 136.326797,234.852234  z" fill="#073963" opacity="1.000000" stroke="none"/>
 <path d=" M59.605919,134.053009   C59.273483,133.330383 59.205387,132.488022 59.246220,131.233612   C59.526852,131.858795 59.698551,132.896027 59.605919,134.053009  z" fill="#04284C" opacity="1.000000" stroke="none"/>
 <path d=" M436.920288,235.370911   C437.167023,235.916092 437.330811,236.831818 437.252563,237.873566   C436.952820,237.246887 436.895081,236.494171 436.920288,235.370911  z" fill="#086BBA" opacity="1.000000" stroke="none"/>
 <path d=" M147.447525,113.751686   C146.902725,113.159683 146.535187,112.320961 146.220734,111.131844   C146.724152,111.689293 147.174484,112.597130 147.447525,113.751686  z" fill="#073963" opacity="1.000000" stroke="none"/>
 <path d=" M313.010742,243.274628   C313.289093,244.066879 313.394073,245.157150 313.334930,246.564026   C313.059631,245.777969 312.948486,244.675308 313.010742,243.274628  z" fill="#086BBB" opacity="1.000000" stroke="none"/>
 <path d=" M200.119995,248.688004   C200.881821,248.303802 201.751404,248.223587 202.909836,248.319794   C202.208374,248.661469 201.218063,248.826736 200.119995,248.688004  z" fill="#04284C" opacity="1.000000" stroke="none"/>
 <path d=" M424.359314,67.845520   C424.461029,68.677757 424.257141,69.557251 423.828308,70.688080   C423.753479,69.923874 423.903595,68.908325 424.359314,67.845520  z" fill="#042346" opacity="1.000000" stroke="none"/>
 <path d=" M75.234406,252.870605   C76.036667,252.730728 77.004196,252.937805 78.103134,253.379150   C77.289589,253.481476 76.344627,253.349533 75.234406,252.870605  z" fill="#053561" opacity="1.000000" stroke="none"/>
 <path d=" M146.460510,108.720360   C145.872284,108.243347 145.504364,107.481163 145.230652,106.474960   C145.776825,106.965698 146.228806,107.700447 146.460510,108.720360  z" fill="#073963" opacity="1.000000" stroke="none"/>
 <path d=" M35.600849,229.032379   C36.217438,229.517181 36.731300,230.324036 37.252605,231.421661   C36.672741,230.926422 36.085430,230.140442 35.600849,229.032379  z" fill="#073963" opacity="1.000000" stroke="none"/>
 <path d=" M138.148880,231.740356   C138.187851,230.880249 138.567078,229.985916 139.170609,228.899567   C139.092987,229.707092 138.791061,230.706619 138.148880,231.740356  z" fill="#073963" opacity="1.000000" stroke="none"/>
 <path d=" M95.114304,97.734032   C95.654617,97.680771 96.216980,97.907692 96.861710,98.370224   C96.341492,98.408630 95.738922,98.211418 95.114304,97.734032  z" fill="#053561" opacity="1.000000" stroke="none"/>
 <path d=" M436.947571,225.329895   C437.152924,225.604218 437.277130,226.207886 437.203796,226.905502   C436.959686,226.552719 436.913086,226.105972 436.947571,225.329895  z" fill="#086BBA" opacity="1.000000" stroke="none"/>
 <path d=" M112.343643,116.940308   C112.896927,117.282852 113.317024,117.938881 113.673691,118.894669   C113.143669,118.547546 112.677063,117.900665 112.343643,116.940308  z" fill="#04284C" opacity="1.000000" stroke="none"/>
 <path d=" M148.772217,193.987885   C148.219040,193.947830 147.766800,193.625000 147.162323,193.067749   C147.631119,193.123917 148.252151,193.414520 148.772217,193.987885  z" fill="#012951" opacity="1.000000" stroke="none"/>
 <path d=" M37.300407,232.089355   C37.900959,232.297043 38.442566,232.830292 39.014015,233.658386   C38.443062,233.440430 37.842262,232.927673 37.300407,232.089355  z" fill="#073963" opacity="1.000000" stroke="none"/>
 <path d=" M281.501587,235.021698   C280.807709,234.543762 280.240540,233.754395 279.669434,232.665039   C280.319763,233.146805 280.974060,233.928543 281.501587,235.021698  z" fill="#053561" opacity="1.000000" stroke="none"/>
 <path d=" M286.661316,110.701744   C286.172485,110.459846 285.816162,109.983109 285.549225,109.278603   C286.023682,109.522858 286.408752,109.994881 286.661316,110.701744  z" fill="#06325D" opacity="1.000000" stroke="none"/>
 <path d=" M173.950302,247.901093   C174.367538,247.806946 174.592850,247.952805 174.934814,248.255936   C174.566193,248.884476 174.088654,249.343765 173.263046,249.841553   C173.193527,249.304413 173.472076,248.728745 173.950302,247.901093  z" fill="#04284C" opacity="1.000000" stroke="none"/>
 <path d=" M446.052917,67.457939   C445.631012,67.750900 445.119843,67.814125 444.231689,67.779816   C444.557678,67.530922 445.260651,67.379562 446.052917,67.457939  z" fill="#042346" opacity="1.000000" stroke="none"/>
 <path d=" M279.503021,231.024826   C279.005005,230.632248 278.658234,229.928558 278.519104,229.054611   C279.035919,229.494141 279.345093,230.103912 279.503021,231.024826  z" fill="#053561" opacity="1.000000" stroke="none"/>
 <path d=" M104.181000,252.858154   C104.369598,252.285828 104.908897,251.830261 105.628380,251.512268   C105.382942,252.091537 104.957321,252.533218 104.181000,252.858154  z" fill="#053561" opacity="1.000000" stroke="none"/>
 <path d=" M285.803162,105.903564   C285.264313,105.575272 284.871704,104.921074 284.728943,104.143311   C285.302307,104.539040 285.625854,105.058350 285.803162,105.903564  z" fill="#06325D" opacity="1.000000" stroke="none"/>
 <path d=" M284.808075,102.917549   C284.311890,102.571060 283.968048,101.909363 283.870514,101.100616   C284.398010,101.503151 284.679230,102.052750 284.808075,102.917549  z" fill="#06325D" opacity="1.000000" stroke="none"/>
 <path d=" M376.034546,220.194992   C376.667572,220.454468 377.233276,220.987244 377.853516,221.812500   C377.908081,222.104965 377.429413,222.179352 377.125366,221.850113   C376.668427,221.179321 376.404968,221.014893 376.030945,221.027603   C376.009705,220.841156 375.988464,220.654724 376.034546,220.194992  z" fill="#073963" opacity="1.000000" stroke="none"/>
 <path d=" M29.419132,104.732384   C29.428606,105.048653 29.226423,105.389732 28.730503,105.835953   C28.693668,105.546463 28.950571,105.151833 29.419132,104.732384  z" fill="#053A6C" opacity="1.000000" stroke="none"/>
 <path d=" M287.545166,125.172653   C287.317078,124.988213 287.275391,124.743370 287.294861,124.131058   C287.481232,124.213142 287.606384,124.662704 287.545166,125.172653  z" fill="#06325D" opacity="1.000000" stroke="none"/>
 <path d=" M28.387442,108.705551   C28.394293,109.016808 28.185001,109.352409 27.702164,109.825592   C27.676178,109.552078 27.923738,109.140984 28.387442,108.705551  z" fill="#053A6C" opacity="1.000000" stroke="none"/>
 <path d=" M467.506592,148.105225   C467.287170,147.933273 467.245239,147.715042 467.269592,147.170074   C467.451935,147.248535 467.567993,147.653748 467.506592,148.105225  z" fill="#042346" opacity="1.000000" stroke="none"/>
 <path d=" M467.522949,156.111221   C467.300476,155.938095 467.257080,155.718613 467.277802,155.169662   C467.461975,155.248413 467.582001,155.656647 467.522949,156.111221  z" fill="#042346" opacity="1.000000" stroke="none"/>
 <path d=" M317.822388,248.610229   C318.023590,248.333115 318.258209,248.267075 318.845398,248.297913   C318.750610,248.536957 318.303223,248.679138 317.822388,248.610229  z" fill="#012951" opacity="1.000000" stroke="none"/>
 <path d=" M342.057800,248.695587   C341.992645,248.167999 342.174744,247.957596 342.724854,247.905136   C342.681610,248.250992 342.419006,248.567566 342.057800,248.695587  z" fill="#012951" opacity="1.000000" stroke="none"/>
 <path d=" M467.503662,234.102737   C467.286682,233.933365 467.244720,233.716080 467.266022,233.172852   C467.445770,233.249557 467.562225,233.652191 467.503662,234.102737  z" fill="#042346" opacity="1.000000" stroke="none"/>
 <path d=" M107.131355,106.399765   C107.480927,106.231445 108.020920,106.320221 108.558701,106.628052   C108.144920,106.783699 107.733345,106.720284 107.131355,106.399765  z" fill="#04284C" opacity="1.000000" stroke="none"/>
 <path d=" M467.509094,202.106567   C467.287018,201.933350 467.244659,201.714874 467.270081,201.169434   C467.454773,201.248764 467.571777,201.655029 467.509094,202.106567  z" fill="#042346" opacity="1.000000" stroke="none"/>
 <path d=" M467.514618,140.106766   C467.294067,139.934464 467.251404,139.716125 467.273987,139.170471   C467.456970,139.249008 467.574738,139.654861 467.514618,140.106766  z" fill="#042346" opacity="1.000000" stroke="none"/>
 <path d=" M467.497620,218.102631   C467.279572,217.932343 467.237640,217.714905 467.260468,217.171600   C467.441406,217.248978 467.557587,217.652222 467.497620,218.102631  z" fill="#042346" opacity="1.000000" stroke="none"/>
 <path d=" M99.754692,99.621674   C100.121033,99.710373 100.538780,100.076836 100.947845,100.745438   C100.561478,100.664864 100.183784,100.282158 99.754692,99.621674  z" fill="#053561" opacity="1.000000" stroke="none"/>
 <path d=" M283.524933,238.972000   C283.187683,239.092026 283.004822,238.898010 282.873779,238.425781   C283.246552,238.171570 283.497803,238.341690 283.524933,238.972000  z" fill="#053561" opacity="1.000000" stroke="none"/>
 <path d=" M436.517029,249.491028   C436.479462,249.509384 436.554565,249.472672 436.517029,249.491028  z" fill="#042346" opacity="1.000000" stroke="none"/>
 <path d=" M33.873940,93.227921   C34.129543,93.471344 34.042065,93.712006 33.699329,94.030960   C33.267406,93.819740 33.296337,93.525047 33.873940,93.227921  z" fill="#053A6C" opacity="1.000000" stroke="none"/>
 <path d=" M103.353340,102.062378   C103.704018,102.001846 103.875351,102.247299 103.982880,102.774414   C103.747055,102.773521 103.498703,102.544289 103.353340,102.062378  z" fill="#053561" opacity="1.000000" stroke="none"/>
 <path d=" M285.566467,242.956589   C285.241089,243.047607 285.066986,242.829987 284.934387,242.339142   C285.142792,242.324234 285.390076,242.518250 285.566467,242.956589  z" fill="#053561" opacity="1.000000" stroke="none"/>
 <path d=" M360.207855,83.930168   C360.015503,84.014297 359.863892,83.587845 359.874573,83.361893   C360.056885,83.372643 360.228546,83.609344 360.207855,83.930168  z" fill="#053A6C" opacity="1.000000" stroke="none"/>
 <path d=" M282.457245,236.983795   C282.116272,237.097763 281.941193,236.908142 281.833008,236.445007   C282.210602,236.201035 282.451691,236.370590 282.457245,236.983795  z" fill="#053561" opacity="1.000000" stroke="none"/>
 <path d=" M280.839844,93.852631   C280.658752,93.839279 280.497101,93.577423 280.174683,93.142822   C280.338379,93.155083 280.620148,93.366432 280.839844,93.852631  z" fill="#06325D" opacity="1.000000" stroke="none"/>
 <path d=" M423.439941,72.892746   C423.672241,73.222984 423.530731,73.435341 422.985840,73.441872   C422.876770,73.144363 423.037994,72.990639 423.439941,72.892746  z" fill="#042346" opacity="1.000000" stroke="none"/>
 <path d=" M283.856995,99.826782   C283.666901,99.845757 283.477570,99.608459 283.109711,99.221970   C283.272369,99.212883 283.581238,99.378799 283.856995,99.826782  z" fill="#06325D" opacity="1.000000" stroke="none"/>
 <path d=" M65.179367,106.858994   C65.100761,106.626740 65.318214,106.405907 65.744553,106.068367   C65.773270,106.237389 65.613937,106.543640 65.179367,106.858994  z" fill="#04284C" opacity="1.000000" stroke="none"/>
 <path d=" M376.066895,221.285004   C376.404968,221.014893 376.668427,221.179321 376.903656,221.752609   C376.691589,221.837021 376.397217,221.689713 376.066895,221.285004  z" fill="#086BBB" opacity="1.000000" stroke="none"/>
 <path d=" M207.147873,96.188789   C213.400757,96.205055 219.653656,96.221321 226.583359,96.525742   C232.612076,98.333397 237.963989,99.852905 243.315887,101.372421   C243.315887,101.372414 243.477844,101.448746 243.377563,101.875450   C244.823639,103.886345 246.370010,105.470528 247.916367,107.054710   C247.916367,107.054710 247.947052,107.039093 248.036682,107.301414   C248.438263,107.679077 248.750229,107.794426 249.062195,107.909775   C249.062195,107.909775 249.075195,107.938660 249.110794,108.292747   C250.672165,111.500961 252.197937,114.355095 253.723709,117.209229   C253.474854,123.523155 253.226013,129.837082 252.734482,136.718201   C252.560364,137.856644 252.628952,138.427917 252.697540,138.999176   C252.402664,140.027206 252.107788,141.055237 251.469177,142.496124   C250.987061,143.382416 250.848694,143.855865 250.710327,144.329315   C250.367004,144.836151 250.023666,145.343002 249.179611,146.109558   C248.528961,146.954025 248.379028,147.538788 248.229095,148.123566   C247.349640,149.008057 246.470184,149.892548 244.997803,150.955795   C241.222214,152.578537 238.039566,154.022522 234.856918,155.466522   C232.246124,156.248550 229.661423,157.579254 227.019424,157.704849   C220.376251,158.020599 213.707214,157.792114 206.581650,157.558655   C206.114761,157.335480 205.974228,156.957870 205.997864,156.492432   C205.981293,136.689331 205.941071,117.351654 206.068817,97.794403   C206.540497,97.112823 206.844177,96.650803 207.147873,96.188789  z" fill="#000001" opacity="1.000000" stroke="none"/>
 <path d=" M174.049255,219.642029   C174.038177,226.998398 173.982971,233.975204 173.899323,241.408539   C173.579788,239.914093 173.036270,237.963348 173.034409,236.012085   C172.984589,183.917450 172.985733,131.822769 173.008926,79.728096   C173.009659,78.083366 173.335037,76.438774 173.725891,74.831696   C173.988892,76.224350 174.035080,77.579430 174.081268,78.934509   C174.036667,81.665871 173.992050,84.397232 173.965332,87.989899   C174.012634,90.215622 174.042023,91.580025 174.071411,92.944435   C174.040222,94.683044 174.009048,96.421661 173.996094,99.055939   C174.036606,104.625168 174.058929,109.298737 174.081253,113.972305   C174.043106,116.687714 174.004959,119.403114 173.978989,123.035278   C174.023483,133.611053 174.055801,143.270081 174.088104,152.929092   C174.066040,153.396820 174.043961,153.864548 174.029510,155.141693   C174.048416,159.959534 174.059723,163.967941 174.071045,167.976364   C174.041809,168.747223 174.012573,169.518097 173.995605,171.135864   C174.029678,186.980103 174.051498,201.977432 174.073334,216.974777   C174.050583,217.737335 174.027847,218.499893 174.049255,219.642029  z" fill="#053A6C" opacity="1.000000" stroke="none"/>
 <path d=" M174.378326,216.757202   C174.051498,201.977432 174.029678,186.980103 174.038422,171.519836   C174.377090,172.325745 174.915955,173.587051 174.957428,174.864517   C175.347824,186.890884 175.714981,198.918961 175.918427,210.949417   C175.949799,212.805328 175.116684,214.675873 174.378326,216.757202  z" fill="#0A75CA" opacity="1.000000" stroke="none"/>
 <path d=" M205.974228,156.957870   C205.974228,156.957870 206.114761,157.335480 206.121613,157.536835   C205.432159,155.965775 204.144958,154.197998 204.131088,152.420288   C203.994751,134.941574 204.070129,117.461189 204.297424,99.510666   C204.509430,99.040039 204.859116,99.034683 204.898148,99.499626   C204.941299,117.277473 204.917252,134.590500 204.994217,151.903076   C205.001709,153.589417 205.632660,155.273010 205.974228,156.957870  z" fill="#042346" opacity="1.000000" stroke="none"/>
 <path d=" M174.260193,152.577087   C174.055801,143.270081 174.023483,133.611053 174.023376,123.485893   C174.667633,124.108849 175.843155,125.219322 175.802765,126.283684   C175.474579,134.935684 174.918793,143.579071 174.260193,152.577087  z" fill="#0A75CA" opacity="1.000000" stroke="none"/>
 <path d=" M243.112244,101.122704   C237.963989,99.852905 232.612076,98.333397 227.040527,96.525925   C232.183441,97.782967 237.546021,99.327972 243.112244,101.122704  z" fill="#053561" opacity="1.000000" stroke="none"/>
 <path d=" M174.384766,113.754349   C174.058929,109.298737 174.036606,104.625168 174.044189,99.488327   C177.335205,103.732803 176.472992,108.615074 174.384766,113.754349  z" fill="#0A75CA" opacity="1.000000" stroke="none"/>
 <path d=" M245.966400,230.971527   C244.881607,229.541245 243.954865,227.722321 242.933533,225.581345   C243.387772,224.102066 243.936600,222.944839 244.485443,221.787613   C245.254791,222.215164 246.024155,222.642700 246.793518,223.070236   C246.570496,225.574448 246.347473,228.078644 245.966400,230.971527  z" fill="#086BBB" opacity="1.000000" stroke="none"/>
 <path d=" M174.354736,167.801605   C174.059723,163.967941 174.048416,159.959534 174.067123,155.491333   C177.402222,159.095718 175.985031,163.362793 174.354736,167.801605  z" fill="#0A75CA" opacity="1.000000" stroke="none"/>
 <path d=" M186.871902,68.993164   C190.878036,68.639961 195.302246,68.449966 200.137985,68.425751   C196.129669,68.779808 191.709824,68.968086 186.871902,68.993164  z" fill="#0A75CA" opacity="1.000000" stroke="none"/>
 <path d=" M235.169907,155.641174   C238.039566,154.022522 241.222214,152.578537 244.779663,151.178253   C241.930618,152.753235 238.706757,154.284531 235.169907,155.641174  z" fill="#073963" opacity="1.000000" stroke="none"/>
 <path d=" M253.748779,116.833824   C252.197937,114.355095 250.672165,111.500961 249.122147,108.281517   C250.656555,110.763603 252.215210,113.611015 253.748779,116.833824  z" fill="#053561" opacity="1.000000" stroke="none"/>
 <path d=" M247.935867,106.693535   C246.370010,105.470528 244.823639,103.886345 243.421204,101.953606   C245.028549,103.180824 246.491959,104.756592 247.935867,106.693535  z" fill="#053561" opacity="1.000000" stroke="none"/>
 <path d=" M174.257568,78.567535   C174.035080,77.579430 173.988892,76.224350 173.902130,74.464157   C173.928101,72.363251 173.994629,70.667458 174.079391,68.548950   C174.345535,68.043564 174.597610,68.027832 175.032364,68.144073   C174.951889,71.539589 174.692871,74.870071 174.257568,78.567535  z" fill="#0A75CA" opacity="1.000000" stroke="none"/>
 <path d=" M204.859116,99.034683   C204.859116,99.034683 204.509430,99.040039 204.334717,99.046707   C204.917282,98.052055 205.674576,97.050735 206.789871,96.119110   C206.844177,96.650803 206.540497,97.112823 205.846619,97.907150   C205.221741,98.477821 205.022644,98.742889 204.859116,99.034683  z" fill="#053561" opacity="1.000000" stroke="none"/>
 <path d=" M178.836823,68.976044   C180.502365,68.658989 182.551147,68.498520 185.071655,68.579239   C183.435608,68.924492 181.327820,69.028549 178.836823,68.976044  z" fill="#0A75CA" opacity="1.000000" stroke="none"/>
 <path d=" M174.233627,92.659668   C174.042023,91.580025 174.012634,90.215622 174.012238,88.442688   C174.159439,89.481079 174.277634,90.927994 174.233627,92.659668  z" fill="#0A75CA" opacity="1.000000" stroke="none"/>
 <path d=" M202.822815,68.956940   C204.160110,68.647751 205.868774,68.494545 208.064545,68.550896   C206.765823,68.877945 204.980011,68.995430 202.822815,68.956940  z" fill="#0A75CA" opacity="1.000000" stroke="none"/>
 <path d=" M252.887573,138.856110   C252.628952,138.427917 252.560364,137.856644 252.687653,137.142975   C252.948212,137.571381 253.012909,138.142197 252.887573,138.856110  z" fill="#073963" opacity="1.000000" stroke="none"/>
 <path d=" M247.888702,235.774353   C247.664825,235.559921 247.360825,235.070908 247.026917,234.290222   C247.267532,234.498978 247.538055,234.999374 247.888702,235.774353  z" fill="#086BBB" opacity="1.000000" stroke="none"/>
 <path d=" M248.467010,147.982056   C248.379028,147.538788 248.528961,146.954025 248.994019,146.358032   C249.107742,146.844711 248.906326,147.342636 248.467010,147.982056  z" fill="#073963" opacity="1.000000" stroke="none"/>
 <path d=" M250.918427,144.190018   C250.848694,143.855865 250.987061,143.382416 251.406540,142.819885   C251.500610,143.170746 251.313583,143.610733 250.918427,144.190018  z" fill="#073963" opacity="1.000000" stroke="none"/>
 <path d=" M248.912613,107.723297   C248.750229,107.794426 248.438263,107.679077 248.034805,107.318420   C248.269760,107.133591 248.542999,107.288162 248.912613,107.723297  z" fill="#053561" opacity="1.000000" stroke="none"/>
 <path d=" M213.720337,68.901138   C213.806992,68.806892 214.150803,68.671509 215.016052,68.734344   C215.017471,68.908371 214.497482,68.884186 213.720337,68.901138  z" fill="#0A75CA" opacity="1.000000" stroke="none"/>
 <path d=" M109.493057,251.371185   C109.453293,251.380264 109.686218,251.034592 109.686218,251.034592   C109.686218,251.034592 109.591713,251.148132 109.532593,251.280762   C109.473480,251.413406 109.532814,251.362091 109.493057,251.371185  z" fill="#000000" opacity="1.000000" stroke="none"/>
 <path d=" M204.898148,99.499626   C205.022644,98.742889 205.221741,98.477821 205.678619,98.126724   C205.941071,117.351654 205.981293,136.689331 205.997864,156.492432   C205.632660,155.273010 205.001709,153.589417 204.994217,151.903076   C204.917252,134.590500 204.941299,117.277473 204.898148,99.499626  z" fill="#1277C5" opacity="1.000000" stroke="none"/>
</svg>
